<?xml version="1.0" standalone="no"?>
<!DOCTYPE svg PUBLIC "-//W3C//DTD SVG 1.1//EN" "http://www.w3.org/Graphics/SVG/1.1/DTD/svg11.dtd" >
<!--
2013-9-30: Created.
-->
<svg>
<metadata>
Created by iconfont
</metadata>
<defs>

<font id="iconfont" horiz-adv-x="1024" >
  <font-face
    font-family="iconfont"
    font-weight="500"
    font-stretch="normal"
    units-per-em="1024"
    ascent="896"
    descent="-128"
  />
    <missing-glyph />
    
    <glyph glyph-name="x" unicode="x" horiz-adv-x="1001"
d="M281 543q-27 -1 -53 -1h-83q-18 0 -36.5 -6t-32.5 -18.5t-23 -32t-9 -45.5v-76h912v41q0 16 -0.5 30t-0.5 18q0 13 -5 29t-17 29.5t-31.5 22.5t-49.5 9h-133v-97h-438v97zM955 310v-52q0 -23 0.5 -52t0.5 -58t-10.5 -47.5t-26 -30t-33 -16t-31.5 -4.5q-14 -1 -29.5 -0.5
t-29.5 0.5h-32l-45 128h-439l-44 -128h-29h-34q-20 0 -45 1q-25 0 -41 9.5t-25.5 23t-13.5 29.5t-4 30v167h911zM163 247q-12 0 -21 -8.5t-9 -21.5t9 -21.5t21 -8.5q13 0 22 8.5t9 21.5t-9 21.5t-22 8.5zM316 123q-8 -26 -14 -48q-5 -19 -10.5 -37t-7.5 -25t-3 -15t1 -14.5
t9.5 -10.5t21.5 -4h37h67h81h80h64h36q23 0 34 12t2 38q-5 13 -9.5 30.5t-9.5 34.5q-5 19 -11 39h-368zM336 498v228q0 11 2.5 23t10 21.5t20.5 15.5t34 6h188q31 0 51.5 -14.5t20.5 -52.5v-227h-327z" />
    

    
    <glyph glyph-name="jine" unicode="&#58880;" d="M512.347132 896C229.506779 896 0.325634 666.780365 0.325634 384s229.181144-512 512.021497-512c282.744127 0 512.021497 229.219635 512.021497 512S795.091258 896 512.347132 896zM762.113761 402.732001l0-99.902264L562.300871 302.829737l0-47.853488 199.812913 0 0-99.902264L562.300871 155.073986l0-101.999396L462.394415 53.07459 462.394415 155.073979 262.581501 155.073979l0 99.902264L462.394415 254.976243l0 47.853488L262.581501 302.829731l0 99.902264 187.473074 0-208.156806 208.195092 70.636409 70.63344 199.812955-199.853595 199.812955 199.853595 70.637432-70.63344L574.643784 402.732001 762.113785 402.732001z"  horiz-adv-x="1025" />

    
    <glyph glyph-name="gou1" unicode="&#58935;" d="M941.919 499.9934c0 13.7657-5.5085 27.5313-15.4222 37.4426l-74.8903 74.8872c-9.9117 9.9113-23.6759 15.4185-37.4431 15.4185s-27.5335-5.5063-37.4451-15.4185L415.4843 250.5565 253.5915 412.9944c-9.9117 9.9113-23.6759 15.4175-37.4451 15.4175-13.7642 0-27.5315-5.5063-37.4431-15.4175l-74.8903-74.8862c-9.9107-9.9123-15.4182-23.6779-15.4182-37.4436 0-13.7667 5.5075-27.5303 15.4182-37.4416l199.336-199.3289 74.8903-74.8872c9.9117-9.9133 23.6789-15.4195 37.4441-15.4195 13.7662 0 27.5325 5.5063 37.4441 15.4195l74.8913 74.8872 398.678 398.6557C936.4105 472.4621 941.919 486.2277 941.919 499.9934z"  horiz-adv-x="1000" />

    
    <glyph glyph-name="iconfont14" unicode="&#58939;" d="M207.166293 619.007521 207.166293 619.007521c6.864338 6.864338 17.992793 6.864338 24.857131 0l267.546475-267.546475c6.864338-6.864338 17.992793-6.864338 24.857131 0l267.548522 267.547499c6.864338 6.864338 17.992793 6.864338 24.856108 0l0.002047-0.002047c6.864338-6.864338 6.864338-17.992793 0-24.857131l-292.4077-292.40463c-6.864338-6.864338-17.992793-6.864338-24.857131 0l-292.403606 292.40463C200.301955 601.013705 200.301955 612.143183 207.166293 619.007521zM207.166293 298.252193 207.166293 298.252193c6.864338 6.864338 17.992793 6.864338 24.857131 0l267.546475-267.546475c6.864338-6.864338 17.992793-6.864338 24.857131 0l267.548522 267.547499c6.864338 6.864338 17.992793 6.864338 24.856108 0l0.002047-0.002047c6.864338-6.864338 6.864338-17.992793 0-24.857131l-292.4077-292.403606c-6.864338-6.864338-17.992793-6.864338-24.857131 0l-292.403606 292.403606C200.301955 280.2594 200.301955 291.388878 207.166293 298.252193zM511.998977 76.414759"  horiz-adv-x="1024" />

    
    <glyph glyph-name="shiliangzhinengduixiang" unicode="&#58940;" d="M961.886 584.653c0-15.954-13.054-29.007-29.008-29.007L91.672 555.646c-15.955 0-29.008 13.053-29.008 29.007l0 69.617c0 15.954 13.053 29.007 29.008 29.007l841.206 0c15.954 0 29.008-13.053 29.008-29.007L961.886 584.653zM961.886 265.397c0-15.954-13.054-29.007-29.008-29.007L91.672 236.39c-15.955 0-29.008 13.053-29.008 29.007l0 69.617c0 15.954 13.053 29.008 29.008 29.008l841.206 0c15.954 0 29.008-13.054 29.008-29.008L961.886 265.397zM961.886-53.857c0-15.954-13.054-29.008-29.008-29.008L91.672-82.865c-15.955 0-29.008 13.054-29.008 29.008L62.664 15.76c0 15.954 13.053 29.007 29.008 29.007l841.206 0c15.954 0 29.008-13.053 29.008-29.007L961.886-53.857z"  horiz-adv-x="1024" />

    
    <glyph glyph-name="iconfont54" unicode="&#59231;" d="M874.032-28.768l-316.768 316.768 316.768 316.768c12.512 12.496 12.512 32.784 0 45.28-12.496 12.496-32.768 12.48-45.28-0.016l-316.752-316.768-316.784 316.784c-12.496 12.496-32.768 12.48-45.28-0.016-12.48-12.48-12.496-32.768 0-45.264l316.784-316.784-316.768-316.784c-12.48-12.48-12.48-32.736 0-45.248 12.496-12.496 32.784-12.496 45.264-0.016l316.784 316.784 316.768-316.768c12.48-12.48 32.752-12.48 45.264 0 12.496 12.496 12.512 32.784 0 45.28z"  horiz-adv-x="1024" />

    
    <glyph glyph-name="kongxinfeng" unicode="&#59147;" d="M968.821029 508.750629l0.071314 0.071314-0.714971 0.714971c-1.821257 2.000457-3.785143 3.821714-5.822171 5.6064L555.607771 878.213486c-0.1792 0.142629-0.464457 0.071314-0.607086 0.213943C544.142629 889.285486 529.142857 896 512.572343 896c-16.607086 0-31.606857-6.785829-42.428343-17.678629L57.857829 512.356571l0.1792-0.1792C44.785371 498.929371 36.571429 480.643657 36.571429 460.4288l0-520.213943c0 0 0-36.571429 36.571429-36.571429l877.714286 0c36.571429 0 36.571429 36.571429 36.571429 36.571429L987.428571 460.4288C987.428571 479.036343 980.2496 495.8208 968.821029 508.750629zM512.8576 817.929143l373.178514-330.678857L621.001143 261.7856l-88.427886 72.427886c-13.500343 11.072-32.8576 11.072-46.357943 0l-88.393143-72.427886L135.1424 485.2864 512.8576 817.929143zM109.714286 342.500571l0 69.070629 230.392686-197.070629L109.714286 25.713371 109.714286 342.500571zM165.392457-23.213714l344 281.857829 344-281.857829L165.392457-23.213714zM914.285714 342.500571l0-321.034971L678.679771 214.500571 914.285714 415.8208 914.285714 342.500571z"  horiz-adv-x="1024" />

    
    <glyph glyph-name="fanhui" unicode="&#58901;" d="M158.629857 703.688155 158.629857 703.688155 158.629857 703.688155 158.629857 703.688155zM660.33335 698.123416l76.996628-71.455425L419.009096 297.219677l318.320882-325.487096L665.086607-103.688155 272.128841 297.192048 660.33335 698.123416zM660.33335 698.123416"  horiz-adv-x="1024" />

    
    <glyph glyph-name="gonggao" unicode="&#58937;" d="M824.617989-110.502998l-53.457496 53.457496c83.437037 95.717813 134.366138 220.692769 134.366138 357.948501 0 136.894533-50.929101 261.869489-134.366138 357.948501l53.457496 53.457496c97.16261-109.443386 156.038095-253.561905 156.038095-411.405996C981.017284 143.058907 921.7806-1.059612 824.617989-110.502998zM678.332275 36.143915 624.51358 89.601411c46.23351 57.791887 74.045855 131.115344 74.045855 211.301587 0 79.825044-27.812346 153.148501-74.045855 211.301587l53.457496 53.457496c59.959083-71.87866 95.717813-163.98448 95.717813-264.759083C774.050088 200.128395 737.930159 108.022575 678.332275 36.143915zM454.388713 0.023986c-12.280776 0-23.839153 3.973192-33.230335 10.835979l0 0-192.158025 139.784127L115.944974 150.644092c-31.063139 0-56.34709 25.283951-56.34709 56.34709l0 188.184832c0 31.063139 25.283951 56.34709 56.34709 56.34709l0 0 111.971781 0 191.074427 156.399295 0-0.361199c9.752381 7.946384 22.033157 13.003175 35.397531 13.003175 31.063139 0 56.34709-25.283951 56.34709-56.34709l0-169.402469 0-131.476543 0-56.34709 0-56.34709 0-93.911817C510.735802 25.307937 485.451852 0.023986 454.388713 0.023986z"  horiz-adv-x="1024" />

    
    <glyph glyph-name="iconwangyin" unicode="&#59415;" d="M280.028764 369.723991l590.338183 0c43.614333 0 79.320557-39.752376 79.320557-88.411609l0-337.472058c0-48.600905-35.706223-88.417749-79.320557-88.417749L280.028764-144.577425c-43.614333 0-79.258135 39.816844-79.258135 88.417749L200.77063 281.312382C200.77063 329.971615 236.414431 369.723991 280.028764 369.723991L280.028764 369.723991 280.028764 369.723991zM249.966075 747.650413c-28.5308 5.647627-56.540737-2.211365-78.58173-19.436678-22.146393-17.141402-38.370913-43.744293-43.493583-75.555813L76.755128 332.0653c-5.122671-31.80538 1.934049-63.035662 17.426905-87.708598 9.222035-14.784728 21.522176-27.216875 36.09508-36.002982l0 72.958662c0 8.150634 0.51677 16.150842 1.541099 24.013927-0.512676 5.1503-0.394996 10.44591 0.398066 15.71082l51.185776 320.624345c2.334161 14.7264 9.911744 27.009144 20.216437 35.012422 10.244318 8.02886 23.227004 11.731182 36.436864 9.109472l525.090133-104.160291c13.205766-2.561335 24.25645-11.002588 31.431873-22.496363 7.167237-11.437493 10.471492-25.957185 8.083096-40.685631l-5.982248-37.509289L257.992889 588.139489l-23.633257-147.809417c14.46341 5.148253 29.782304 8.003278 45.668109 8.003278l570.755172 0 9.392928 59.106166c5.066389 31.80538-1.992377 63.035662-17.365506 87.685062-15.485693 24.591071-39.289841 42.74964-67.814502 48.397267L249.966075 747.650413 249.966075 747.650413 249.966075 747.650413zM705.358823 305.609765c-42.592051 0-77.094866-38.444591-77.094866-85.96693 0-47.468105 34.502815-85.999676 77.094866-85.999676 19.127639 0 36.672224 7.746428 50.103118 20.609387 13.499455-12.861936 30.979572-20.609387 50.107211-20.609387 42.594097 0 77.153194 38.531572 77.153194 85.999676 0 47.52234-34.559097 85.96693-77.153194 85.96693-19.127639 0-36.607756-7.711636-50.107211-20.573571C742.030024 297.898129 724.486462 305.609765 705.358823 305.609765L705.358823 305.609765 705.358823 305.609765zM761.898537 18.281757l0-58.434877L891.375423-40.15312l0 58.434877L761.898537 18.281757 761.898537 18.281757 761.898537 18.281757zM598.998423 18.281757l0-58.434877 129.482003 0 0 58.434877L598.998423 18.281757 598.998423 18.281757 598.998423 18.281757zM431.145507 18.281757l0-58.434877 129.475863 0 0 58.434877L431.145507 18.281757 431.145507 18.281757 431.145507 18.281757zM268.186042 18.281757l0-58.434877 129.475863 0 0 58.434877L268.186042 18.281757 268.186042 18.281757zM268.186042 18.281757"  horiz-adv-x="1024" />

    
    <glyph glyph-name="guanbi1" unicode="&#58909;" d="M509.953388 748.756607c-246.709915 0-446.708971-200.00008-446.708971-446.708971 0-246.711961 200.00008-446.708971 446.708971-446.708971 246.711961 0 446.708971 199.998033 446.708971 446.708971C956.662359 548.756527 756.664326 748.756607 509.953388 748.756607zM735.3683 141.549222c17.933441-17.933441 17.933441-46.984081 0-64.917522-8.965186-8.965186-20.712741-13.44829-32.456203-13.44829-11.746532 0-23.493064 4.483104-32.459273 13.44829L509.953388 237.131137 349.455997 76.6317c-8.968256-8.965186-20.712741-13.44829-32.459273-13.44829s-23.493064 4.483104-32.459273 13.44829c-17.933441 17.933441-17.933441 46.984081 0 64.917522l160.499437 160.497391L284.537452 462.547073c-17.933441 17.933441-17.933441 46.984081 0 64.917522 17.933441 17.931395 46.984081 17.931395 64.917522 0l160.497391-160.499437 160.499437 160.499437c17.931395 17.931395 46.984081 17.931395 64.915475 0 17.933441-17.933441 17.933441-46.984081 0-64.917522L574.87091 302.046612 735.3683 141.549222z"  horiz-adv-x="1024" />

    
    <glyph glyph-name="youzhengyinxing01" unicode="&#58896;" d="M107.912533 240.437333l-4.778667-26.760533 143.4624 0 6.365867 26.760533L107.912533 240.437333 107.912533 240.437333zM472.9344 213.659733l4.778667 26.760533-162.577067 0-6.4-26.760533L472.9344 213.659733 472.9344 213.659733zM563.780267 349.015467l-22.306133-108.578133-6.382933-26.760533-22.306133-108.578133-62.173867 0-164.1984 0-4.744533-25.173333 264.567467 0 35.072 160.512 22.3232 108.578133 62.173867 0 255.044267 0-23.9104-108.578133-253.44 0-57.3952-269.090133-62.173867 0L257.757867-28.6528l-4.778667-25.224533 368.196267 0 35.089067 158.941867 22.3232 108.578133 63.744 0 149.8624 0-22.357333-108.578133-151.432533 0-33.467733-158.941867-23.876267-108.561067L598.869333-162.4384 166.877867-162.4384l57.412267 267.52-145.066667 0L17.066667 105.0816l23.9104 108.578133L45.738667 240.437333l23.9104 108.578133 62.1568 0 143.479467 0 57.378133 267.52 62.139733 0 164.1984 0 28.672 135.338667 19.1488 0L1006.933333 751.874133l-23.927467-108.578133-357.034667 0-4.795733-26.760533-22.306133-108.578133-63.761067 0-162.594133 0-6.365867-25.173333L632.32 482.784l4.795733 25.173333 23.927467 108.578133 62.139733 0 255.010133 0-23.876267-108.578133L700.842667 507.957333l-28.672-133.751467-62.173867 0L343.825067 374.205867l-6.4-25.1904 164.181333 0L563.780267 349.015467z"  horiz-adv-x="1024" />

    
    <glyph glyph-name="zhangbianjilu" unicode="&#58953;" d="M512 812C275.75 812 76.875 652 17.875 434.5L131.25 341.25C151.75 533.375 314.375 683 512 683c153.125 0 285.375-89.875 346.625-219.875l-123-34.5L1024 298.25c0 0.625 0 1.125 0 1.75C1024 582.75 794.75 812 512 812L512 812zM512-83c-153.75 0-286.375 90.625-347.375 221.5l123.75 0-0.25 0.375L1 333c-0.75-10.875-1-21.875-1-33 0-282.75 229.25-512 512-512 247.25 0 453.5 175.25 501.5 408.25l-120.375 66.25C874.25 68.625 710.875-83 512-83L512-83zM598.25 516.125l-34.875-73.375c-23.375-48.125-36.75-77.125-40.125-87-2-6.125-3.75-11.25-5.25-15.375l-2 0c-11.375 28.25-38.5 86.75-81.375 175.625l-94.75 0L448.75 324.375l-81.75 0 0-57.75 101.5 0 0-43.75-101.5 0 0-58.25 101.5 0 0-80 88.625 0 0 80 98.125 0 0 58.25-98.125 0 0 43.75 98.125 0 0 57.75-79.5 0 112.125 191.75L598.25 516.125 598.25 516.125zM598.25 516.125"  horiz-adv-x="1024" />

    
    <glyph glyph-name="tixian" unicode="&#59069;" d="M958.749838 439.012704c0 0-3.754514 17.3645-30.261241 17.3645-21.762675 0-27.678414-13.041027-27.759255-21.060686 0 0 0.817622-297.285074 0.817622-302.097688 0-4.811591-1.015121-25.902976-24.644308-36.610862-18.959836-8.577361-83.012728-31.799272-194.342414-35.425873-122.708862-3.936663-264.334581 59.416287-360.931713 61.506904-56.071096 1.18499-114.925587-9.724489-153.601484-19.037608-6.891974-1.603522-25.039304-16.836474-16.542785-34.588807 7.802718-16.388265 26.569149-14.645573 35.781984-11.576675 43.980721 12.343132 64.706786 17.991788 137.876322 16.73619 62.522025-1.04582 198.433596-61.298149 357.653037-58.020496 115.637809 2.440588 217.677912 31.86988 233.739742 39.679761 34.368796 16.73619 42.768102 36.402108 42.768102 52.022893C959.303448 117.738239 958.749838 439.012704 958.749838 439.012704L958.749838 439.012704zM855.361017 531.661917c0 9.623181-6.512327 15.900148-18.170866 18.998722-8.216134 2.162248-19.061144 2.758836-31.985514 1.8133-33.612572-2.402725-63.35909-27.019404-153.679255-27.019404-121.995617 0-249.643983 58.749091-354.301706 58.469728-164.840467-0.348948-189.957543-18.479905-212.594122-31.660102-15.802933-9.166786-19.933001-25.872276-19.933001-32.178919l0-364.550128c0-8.019659 16.97769-24.964603 43.980721-17.713448 43.523303 11.646259 114.464076 26.011446 186.482391 26.011446 113.870558 0 242.336546-58.539313 362.49942-58.539313 94.988493 0 149.154191 15.968709 169.664337 25.414858 20.490704 9.453312 28.851124 21.827143 28.851124 28.034525C856.174546 164.879956 855.361017 515.234766 855.361017 531.661917L855.361017 531.661917zM460.534298 196.299581c-97.472059 0-176.47547 66.350217-176.47547 148.290519 0 81.869694 79.003411 148.258797 176.47547 148.258797s176.474447-66.388079 176.474447-148.258797C637.009768 262.649798 558.006358 196.299581 460.534298 196.299581L460.534298 196.299581zM396.97771 327.156015c-11.21954 0-20.312648-7.670711-20.312648-17.085137s9.093108-17.085137 20.312648-17.085137l44.476002 0 0-44.56196c0-9.413403 9.093108-17.084114 20.313672-17.084114 11.238983 0 20.332091 7.670711 20.332091 17.084114l0 44.56196 44.476002 0c11.215447 0 20.312648 7.670711 20.312648 17.085137s-9.097201 17.085137-20.312648 17.085137l-44.476002 0 0 21.098548 44.476002 0c11.215447 0 20.312648 7.632849 20.312648 17.046252 0 9.453312-9.097201 17.085137-20.312648 17.085137l-25.317644 0 37.548212 31.520932c7.922445 6.694476 7.922445 17.50367 0 24.128561-7.942911 6.694476-20.788486 6.694476-28.75084 0l-48.287821-40.516826-48.269402 40.516826c-7.922445 6.694476-20.807929 6.694476-28.75084 0-7.922445-6.624891-7.922445-17.434085 0.019443-24.128561l37.526722-31.520932-25.314574 0c-11.21954 0-20.332091-7.631825-20.332091-17.085137 0-9.413403 9.112551-17.046252 20.332091-17.046252l44.476002 0 0-21.098548L396.97771 327.156015 396.97771 327.156015 396.97771 327.156015zM396.97771 327.156015"  horiz-adv-x="1024" />

    
    <glyph glyph-name="gou" unicode="&#59001;" d="M844.518233 561.524319 814.878169 582.97077 482.539015 123.49503 200.927195 327.184129 179.482791 297.540995 490.740814 72.410562 512.186242 102.051649 512.182149 102.054719Z"  horiz-adv-x="1024" />

    
    <glyph glyph-name="guangfa" unicode="&#58978;" d="M650.550985 812 511.642981 811.619453 372.722701 812C255.394398 437.021634 0 165.91431 0 165.91431l94.358378-165.952448 37.89823-66.971237c0 0 374.551784 85.01246 757.821379-1.508891l1.531397 2.897071 131.663281 231.534482C1023.273686 165.91431 767.881335 437.021634 650.550985 812zM372.165179 225.064887c55.118002 83.783864 101.447608 167.633199 139.477802 244.651093 38.337087-77.666462 85.119872-162.275868 140.856775-246.760472C567.18961 228.735329 471.856336 230.723996 372.165179 225.064887z"  horiz-adv-x="1024" />

    
    <glyph glyph-name="mima-copy-copy" unicode="&#58886;" d="M760.384 454.624v103.616c0 0-0.032 241.728-241.728 241.728s-241.728-241.728-241.728-241.728v-103.616h-103.616v-483.488h690.688v483.488h-103.616zM553.184 187.936v-113.184h-69.056v113.184c-20.544 11.968-34.528 34.016-34.528 59.488 0 38.176 30.944 69.088 69.056 69.088 38.112 0 69.056-30.912 69.056-69.088 0.032-25.472-13.952-47.52-34.528-59.488M691.328 454.656h-345.344v103.136c0.384 28.928 10.56 173.12 172.672 173.12s172.288-144.192 172.672-172.672v-103.584z"  horiz-adv-x="1024" />

    
    <glyph glyph-name="mima" unicode="&#59709;" d="M539.733333 469.333333C504.746667 568.746667 410.026667 640 298.666667 640c-141.226667 0-256-114.773333-256-256s114.773333-256 256-256c111.36 0 206.08 71.253333 241.066667 170.666667L725.333333 298.666667l0-170.666667 170.666667 0 0 170.666667 85.333333 0 0 170.666667L539.733333 469.333333zM298.666667 298.666667c-46.933333 0-85.333333 38.4-85.333333 85.333333s38.4 85.333333 85.333333 85.333333 85.333333-38.4 85.333333-85.333333S345.6 298.666667 298.666667 298.666667z"  horiz-adv-x="1024" />

    
    <glyph glyph-name="xingyeyinxing01-copy" unicode="&#58881;" d="M1579.109 388.106c0 159.559-215.966 288.872-482.313 288.872-213.197 0-394.077-82.962-457.678-197.867v0.112c-5.895-10.679-9.173-22.299-9.173-34.447 0-28.666 18.042-54.147 46.218-70.834l244.518-141.348c12.656-6.875 27.704-10.962 43.995-10.962 16.272 0 31.396 4.087 44.052 10.943l231.88 134.19c15.669 9.040 25.596 23.241 25.596 39.043 0 15.349-9.38 29.041-24.164 38.196l-86.221 49.89-191.143-110.459-144.567 83.659c55.842 50.362 159.898 84.281 279.153 84.281 178.206 0 322.678-75.748 322.678-169.278-3.823-144.775-215.835-256.836-473.423-250.13-257.703 6.817-463.46 129.839-459.674 274.538h-0.056c1.771 190.974 251.75 343.395 558.174 340.419 27.346-0.32 54.072-1.789 80.213-4.426-62.829 23.223-141.385 37.009-226.833 37.009-68.234 0-132.156-8.852-187.132-24.164v0c-221.748-60.946-377.051-202.463-377.051-367.238 0-220.693 278.231-399.614 621.532-399.614 343.245 0 621.494 178.921 621.494 399.614h-0.076z"  horiz-adv-x="1902" />

    
    <glyph glyph-name="guanbi" unicode="&#58908;" d="M512 867.498667c-266.939733 0-483.669333-216.405333-483.669333-483.328 0-267.246933 216.746667-483.669333 483.669333-483.669333 266.752 0 483.669333 216.4224 483.669333 483.669333C995.669333 651.093333 778.752 867.498667 512 867.498667zM512-33.28c-230.4 0-417.450667 186.709333-417.450667 417.450667C94.549333 614.570667 281.6 801.28 512 801.28c230.212267 0 417.450667-186.709333 417.450667-417.109333C929.450667 153.429333 742.212267-33.28 512-33.28zM727.466667 194.901333c-14.165333-16.213333-33.962667-24.405333-53.930667-24.405333-16.896 0-33.621333 5.802667-47.291733 17.749333l-112.7936 99.157333-109.755733-102.570667c-13.824-12.8-31.214933-19.285333-48.7936-19.285333-19.114667 0-38.229333 7.68-52.394667 22.869333-27.136 28.842667-25.429333 74.257067 3.413333 101.205333l99.328 92.842667-102.058667 89.6c-29.696 26.112-32.768 71.338667-6.656 101.034667 14.165333 16.213333 33.962667 24.405333 53.930667 24.405333 16.878933 0 33.621333-5.802667 47.274667-17.749333l112.810667-99.157333 109.738667 102.570667c13.824 12.8 31.402667 19.285333 48.810667 19.285333 19.285333 0 38.212267-7.662933 52.3776-22.698667 27.153067-28.996267 25.429333-74.3936-3.396267-101.358933l-99.328-92.842667 102.0416-89.6C750.506667 269.841067 753.5616 224.597333 727.466667 194.901333z"  horiz-adv-x="1024" />

    
    <glyph glyph-name="cmb" unicode="&#58900;" d="M1020.909104 381.670955c0-280.349059-227.273237-507.624343-507.624343-507.624343-280.353153 0-507.624343 227.275283-507.624343 507.624343 0 280.354176 227.272213 507.624343 507.624343 507.624343C793.635867 889.295298 1020.909104 662.024108 1020.909104 381.670955zM479.63743 217.255325 704.78526 217.255325 589.887416 495.641683ZM846.780251 222.85281 758.94988 94.886323 278.814612 94.886323 184.470897 212.573699 391.825478 747.862101 509.532297 467.616396 621.632421 750.664937 729.057059 499.37982 902.847198 499.37982 897.226177 514.326231 891.638925 530.190547 886.016881 545.136957 878.543675 559.158299 871.996562 574.104709 863.596242 588.110701 855.215364 601.196741 846.782298 614.275617 836.530816 627.354494 831.851237 633.89342 827.189054 640.425184 816.872081 652.577968 805.678134 663.788288 794.485211 674.998607 782.31503 686.199717 770.211365 696.483944 758.041184 705.818543 744.97868 715.168492 731.867058 724.510254 717.863113 732.917738 703.842795 740.390943 689.854199 747.863125 674.889369 754.403075 659.960355 760.934838 652.486126 763.737674 644.995525 766.547673 629.124046 771.209856 613.233124 775.880225 597.361645 779.625526 580.529281 782.428362 564.655755 785.230174 547.874557 786.156266 530.100752 788.03301 513.301134 788.03301 513.301134 788.039149 503.01486 788.039149 492.763378 787.103848 472.194924 786.162406 451.610096 783.35957 441.358615 781.491013 431.056991 779.630642 421.717276 777.762085 411.463748 774.95925 392.764873 769.353578 374.082372 763.741767 355.397824 756.267539 337.655741 747.868241 319.914682 738.518293 311.483662 733.864296 303.084365 729.18574 294.700417 723.571882 286.253024 718.908676 270.379499 706.764078 262.936993 701.15022 254.50495 695.545572 240.486678 682.474882 226.515479 668.45354 219.024877 661.9228 212.51051 654.448572 205.963397 647.908622 199.382515 640.42723 188.188568 624.554728 176.069553 608.673016 165.785326 591.857025 161.105746 583.457728 156.42719 575.041034 147.085428 557.291788 138.70148 539.542542 132.155391 520.859018 125.64 502.183679 120.002606 483.491968 115.323027 463.874165 111.617635 443.323107 108.807636 422.778188 107.848799 402.22713 106.939079 381.675048 106.939079 371.399007 107.848799 361.131153 108.807636 339.63763 111.617635 320.019827 113.470843 309.741739 115.323027 299.467745 117.190561 290.124959 120.002606 279.849942 125.64 261.164371 132.155391 241.547591 138.70148 223.795275 147.085428 205.106634 156.42719 188.296783 161.105746 178.956044 165.785326 170.555723 171.40737 162.13903 176.070576 154.666848 188.189591 138.794345 193.811636 130.383792 199.383538 122.910587 212.511533 107.957013 226.517525 93.952045 233.047242 87.411071 240.488725 80.863958 247.068584 74.334241 254.50802 67.793268 270.381545 55.640484 286.256094 44.439374 303.087435 34.16538 311.486732 29.49501 319.917752 23.888316 337.659835 15.471622 355.401917 7.073348 374.085442-0.40088 392.767943-6.932644 411.467841-11.6112 431.059038-16.282592 451.612143-20.018683 472.19697-22.820496 492.765425-24.697239 513.300111-24.697239 530.099728-24.697239 545.972231-23.754774 561.845757-21.878031 570.276776-20.952962 577.766354-20.018683 593.589738-17.223011 608.571964-13.479757 624.444467-9.750829 639.424646-5.07125 653.444964 0.526235 668.358629 6.138046 682.380994 11.744741 696.400289 18.291854 710.42163 25.74971 723.485157 33.220868 736.545614 41.638585 748.699422 50.046069 760.851183 59.387831 772.971222 68.730617 784.165168 78.997448 795.424606 89.281675 806.617529 100.483808 816.870034 110.760872 827.187007 122.91161 836.528769 135.057231 844.910671 147.192619 854.269829 159.335171 861.743034 172.405861 870.143355 186.428226 876.674095 199.506079 883.206882 213.518211 889.736599 227.522156 895.359666 242.476753 838.380954 242.476753ZM248.919744 217.255325 248.919744 217.254302 474.066551 217.254302 359.169731 495.641683ZM761.760902 420.898375 917.761885 420.898375 915.911748 437.721529 755.231185 437.721529ZM745.8884 460.142168 912.191006 460.142168 908.436496 476.958158 738.397798 476.958158ZM795.424606 342.435349 917.760862 342.435349 919.629419 359.250316 787.935028 359.250316ZM829.037145 264.896368 902.845151 264.896368 907.509381 280.788314 821.564963 280.788314ZM772.062526 398.478759 778.594289 381.671978 919.629419 381.671978 919.629419 398.478759ZM812.206828 303.191556 912.191006 303.191556 914.950863 320.016757 804.734646 320.016757Z"  horiz-adv-x="1024" />

    
    <glyph glyph-name="shouji" unicode="&#58945;" d="M778.783089 789.839145l-502.525208 0c-25.230638 0-45.685505-18.336624-45.685505-40.958854l0-696.291306c0-22.620184 20.455891-40.956807 45.685505-40.956807l502.525208 0c25.230638 0 45.685505 18.336624 45.685505 40.956807L824.468594 748.880291C824.468594 771.501498 804.012703 789.839145 778.783089 789.839145zM517.281283 83.307613c-22.62223 0-40.958854 18.336624-40.958854 40.958854s18.336624 40.958854 40.958854 40.958854c22.620184 0 40.958854-18.336624 40.958854-40.958854S539.900443 83.307613 517.281283 83.307613zM742.550886 261.103995c0-24.676006-27.505447-44.681642-61.437258-44.681642L373.926318 216.422354c-33.93181 0-61.437258 20.005636-61.437258 44.681642L312.48906 663.239795c0 24.678052 27.505447 44.681642 61.437258 44.681642L681.113629 707.921437c33.93181 0 61.437258-20.00359 61.437258-44.681642L742.550886 261.103995 742.550886 261.103995z"  horiz-adv-x="1024" />

    
    <glyph glyph-name="boc" unicode="&#59009;" d="M512 896c-282.784 0-512-229.216-512-512s229.216-512 512-512 512 229.216 512 512-229.216 512-512 512zM452.832-11.008c-108.736 17.856-195.968 67.808-259.136 154.304-96.256 131.776-108.48 274.048-37.088 420.672 60.064 123.328 186.624 201.184 295.232 210.72 0-61.504 0-121.536 0-184.64-19.392 0-37.952 0.032-56.48 0-81.312-0.128-131.392-50.176-131.52-131.52-0.064-50.848-0.16-101.696 0.032-152.544 0.288-79.392 50.176-129.376 129.216-129.6 9.408-0.032 18.848 0.096 28.256-0.064 35.712-0.544 31.296 5.024 31.424-32.544 0.192-50.112 0.032-100.256 0.032-154.752zM509.824 285.664c-35.776 0-71.552-0.16-107.296 0.064-21.696 0.128-26.432 4.832-26.528 26.88-0.224 47.072-0.224 94.112-0.032 141.184 0.096 21.792 4.512 26.208 26.976 26.272 71.52 0.192 143.072 0.192 214.592-0.032 22.048-0.064 26.336-4.448 26.464-26.72 0.256-47.072 0.256-94.112 0.032-141.184-0.096-21.664-4.96-26.272-26.944-26.4-35.776-0.192-71.52-0.064-107.296-0.064zM851.328 180.384c-61.888-107.488-158.208-169.504-284.032-191.744 0 15.904 0 28.256 0 40.608 0 43.328 0.416 86.656-0.288 129.952-0.192 13.056 3.872 17.888 17.088 17.28 18.176-0.864 36.416-0.448 54.592-0.032 61.664 1.44 114.144 49.568 116.448 111.136 2.368 63.328 2.432 126.848 0.032 190.144-2.4 63.168-55.36 110.944-119.616 112.192-21.856 0.416-43.744 0.064-67.424 0.064 0 63.52 0 123.552 0 187.008 117.632-20.192 210.432-77.28 273.504-176.224 87.328-136.992 90.56-279.904 9.664-420.416z"  horiz-adv-x="1024" />

    
    <glyph glyph-name="icbc" unicode="&#59036;" d="M721.152 652.896l-172.256 0 0-73.76 172.256 0 0-77.376-172.256 0 0-228.48 172.256 0 0-84.416-172.256 0 0-73.792 253.12 0 0 232-172.256 0 0 77.376 172.256 0 0 228.448-80.864 0zM221.984 652.896l0-228.448 172.224 0 0-77.376-172.224 0 0-232 253.088 0 0 73.792-172.288 0 0 84.416 172.288 0 0 228.48-172.288 0 0 77.376 172.288 0 0 73.76-253.088 0zM512 896c-282.784 0-512-229.248-512-512s229.216-512 512-512 512 229.216 512 512c0 282.752-229.216 512-512 512l0 0 0 0zM512-20.8c-223.552 0-404.768 181.216-404.768 404.768s181.216 404.8 404.768 404.8c223.552 0 404.768-181.216 404.768-404.8s-181.216-404.768-404.768-404.768l0 0 0 0z"  horiz-adv-x="1024" />

    
    <glyph glyph-name="jiantou-copy-copy" unicode="&#58927;" d="M97.524 384c0-229.361 186.018-414.476 414.476-414.476s414.476 186.018 414.476 414.476-186.018 414.476-414.476 414.476-414.476-185.115-414.476-414.476zM534.575 530.286l206.787-205.883c6.321-6.321 9.030-14.448 9.030-22.575s-2.709-16.254-9.030-22.575c-12.642-12.642-32.508-12.642-45.15 0l-184.212 184.212-181.503-183.309c-12.642-12.642-32.508-12.642-44.246 0-12.642 12.642-12.642 32.508 0 44.246l204.078 205.884c6.321 6.321 13.545 9.030 22.575 9.030 7.224 0 15.351-2.709 21.672-9.030z"  horiz-adv-x="1024" />

    
    <glyph glyph-name="ccb" unicode="&#58899;" d="M495.616 823.808C521.216 836.096 550.4 838.656 578.048 843.776 637.952 849.408 706.048 836.096 747.52 789.504 814.592 724.48 880.64 658.944 947.2 594.432 921.088 569.344 896.512 542.72 869.888 517.632L866.816 518.656C777.728 607.232 690.176 696.832 601.088 785.408 573.44 812.544 533.504 822.272 495.616 823.808ZM162.304 610.816C241.664 720.896 376.32 788.992 512.512 785.92 536.576 784.384 558.592 771.072 576.512 755.2 666.112 665.6 755.2 576 844.8 486.4 805.376 445.952 764.928 407.04 726.016 366.08 653.824 438.784 580.608 510.464 509.952 584.704 507.904 583.168 504.832 581.12 502.784 580.096 428.032 505.856 354.304 430.08 279.04 356.352 353.792 278.016 432.128 202.752 507.904 125.44 579.072 196.608 649.728 267.776 720.384 339.456 728.064 349.696 741.888 345.088 753.152 346.112 814.08 346.112 875.008 345.6 935.936 346.112 936.448 237.056 889.856 129.024 814.08 51.2 745.472-20.48 651.264-65.536 552.96-76.8 524.288-77.312 495.104-76.8 465.92-76.8 354.816-65.024 248.32-9.728 177.664 77.312 112.128 155.136 77.824 257.024 77.312 358.4 79.872 448.512 108.032 538.624 162.304 610.816Z"  horiz-adv-x="1024" />

    
    <glyph glyph-name="cmbc" unicode="&#58904;" d="M311.296 717.312C455.168 747.008 605.696 746.496 747.52 706.048 813.056 687.616 879.104 659.968 927.744 609.792 953.344 585.216 969.728 550.912 970.752 515.584 921.6 515.584 871.936 516.096 822.272 515.584 818.688 545.28 807.936 575.488 785.408 596.48 723.456 654.848 637.44 675.328 555.008 684.544 463.36 689.664 368.128 679.424 286.72 634.88 251.392 612.864 215.552 584.192 204.288 542.208 193.536 500.736 214.528 457.216 246.784 431.616 318.976 371.712 415.744 352.768 506.88 351.232 529.408 354.304 547.328 338.944 566.272 330.24 620.032 303.616 673.28 274.944 727.552 249.344 714.24 237.568 696.832 232.448 681.472 224.256 623.616 194.56 564.736 167.424 506.88 137.728 436.224 174.592 364.032 209.408 292.864 246.272L291.84 251.392C325.12 268.8 358.4 284.672 392.192 301.056 392.192 302.592 392.704 305.664 392.704 307.2 365.568 307.712 338.432 313.856 311.808 320 238.08 338.944 162.816 365.056 105.472 417.792 73.728 444.416 52.224 484.864 53.76 526.848 58.368 565.76 80.896 601.6 111.104 626.176 167.424 674.816 240.128 699.392 311.296 717.312M422.912 250.368C450.048 233.984 479.232 219.648 507.904 205.824 538.112 218.624 566.784 233.984 595.968 249.344 566.272 263.68 537.6 279.04 508.416 293.888 480.256 278.528 451.584 264.192 422.912 250.368ZM503.296 623.616C507.904 625.664 514.048 630.272 519.168 626.688 590.848 589.824 663.04 555.008 733.696 517.12 703.488 503.296 674.304 487.424 644.096 473.088 637.952 470.016 631.808 466.432 627.712 460.8 677.376 456.192 725.504 443.904 773.12 428.544 832 409.6 888.832 378.88 932.352 333.312 963.584 299.008 978.432 246.784 957.952 203.264 935.424 151.04 885.248 117.248 835.584 92.672 745.984 49.664 646.144 33.792 547.84 29.184 416.256 25.6 280.064 44.032 162.304 105.472 108.544 136.192 51.2 184.832 51.712 251.904 101.376 249.856 151.552 254.464 201.216 249.344 201.728 216.064 218.624 183.808 244.736 162.816 309.76 106.496 397.824 89.088 480.768 81.408 554.496 79.36 629.76 86.528 698.368 114.688 737.28 128.512 771.584 153.6 797.696 185.344 820.224 212.48 827.392 252.416 812.544 285.184 795.136 329.216 752.64 354.816 712.704 375.296 645.12 404.992 570.368 417.28 497.152 416.768 428.032 448.512 361.984 485.888 292.864 518.144 361.472 555.52 433.664 587.776 503.296 623.616M509.44 559.616C481.28 545.28 453.12 532.48 425.472 517.632 455.168 504.32 483.84 487.936 512.512 472.576 541.184 487.936 570.368 503.296 599.552 517.12 575.488 530.944 549.888 542.208 525.312 556.032 520.192 558.08 514.56 563.2 509.44 559.616Z"  horiz-adv-x="1024" />

    
    <glyph glyph-name="pufazhifu" unicode="&#58965;" d="M215.04 256c28.16 2.56 53.76 2.56 81.92 7.68 74.24 15.36 133.12 79.36 143.36 156.16 2.56 23.04 5.12 46.08 7.68 66.56 12.8 79.36 89.6 148.48 168.96 153.6 51.2 5.12 94.72-7.68 135.68-38.4 30.72-20.48 51.2-51.2 66.56-87.04-10.24 0-17.92 2.56-25.6 2.56-94.72 5.12-176.64-53.76-199.68-148.48-5.12-23.04-5.12-46.08-7.68-69.12-10.24-87.04-84.48-156.16-171.52-166.4-84.48-7.68-161.28 38.4-194.56 110.08C217.6 250.88 217.6 253.44 215.04 256zM430.08 519.68c-43.52 0-84.48 0-122.88-17.92-66.56-28.16-115.2-102.4-112.64-171.52 2.56-107.52 0-212.48 0-320 0-5.12-2.56-7.68-2.56-12.8-5.12 2.56-10.24 2.56-12.8 5.12-38.4 28.16-74.24 56.32-112.64 84.48-5.12 5.12-7.68 10.24-7.68 17.92 0 117.76 0 232.96 0 350.72 2.56 99.84 84.48 176.64 174.08 184.32 89.6 7.68 161.28-46.08 192-110.08C427.52 527.36 427.52 522.24 430.08 519.68zM596.48 248.32c25.6 2.56 51.2 2.56 74.24 5.12 76.8 10.24 145.92 76.8 158.72 153.6 2.56 10.24 2.56 20.48 2.56 30.72 0 104.96 0 209.92 0 312.32 0 5.12 0 10.24 0 17.92 7.68-2.56 12.8-2.56 17.92-5.12 38.4-28.16 74.24-56.32 112.64-84.48 5.12-2.56 7.68-12.8 7.68-17.92 0-87.04 0-176.64 0-263.68 0-33.28 0-66.56-2.56-97.28-7.68-92.16-92.16-171.52-186.88-171.52-84.48 0-145.92 38.4-181.76 115.2C596.48 243.2 596.48 243.2 596.48 248.32 596.48 245.76 596.48 245.76 596.48 248.32z"  horiz-adv-x="1024" />

    
    <glyph glyph-name="zhongxinyinxing" unicode="&#59347;" d="M308.425 673.536302 308.425-14.346497c27.259854-14.020318 56.111972-25.245987 86.283132-33.387411L394.708132 536.48695C394.708132 596.795501 359.415324 648.877693 308.425 673.536302L308.425 673.536302 308.425 673.536302 308.425 673.536302zM718.176245 673.536302 718.176245-14.346497c-27.229155-14.020318-56.110949-25.245987-86.282109-33.387411L631.894136 536.48695C631.894136 596.795501 667.130661 648.877693 718.176245 673.536302L718.176245 673.536302 718.176245 673.536302 718.176245 673.536302zM719.270159 770.115941c0 7.809873-4.590552 14.583137-11.252275 17.688871l0.055259 0.054235c-58.96802 28.241204-125.016295 44.13622-194.813964 44.13622-69.853951 0-135.902226-15.924691-194.869223-44.245713l0 0c-6.576789-3.160993-11.082406-9.963932-11.082406-17.660218 0-8.930393 5.820566-16.398482 13.853519-18.892279l0-0.056282c80.154551-25.187659 138.195455-99.742678 138.195455-187.787944l0-623.654986c17.662265-2.096754 35.629475-3.275603 53.902654-3.275603 18.248619 0 36.243459 1.178849 53.93233 3.275603L567.191508 563.352831c0 88.045265 58.07058 162.711825 138.225131 187.844226l0 0.028653C713.44857 753.716436 719.270159 761.190665 719.270159 770.115941L719.270159 770.115941 719.270159 770.115941 719.270159 770.115941zM205.966467 413.315676c12.986779-4.646833 27.092032 0.556679 34.19787 11.725042L240.164337 739.721701c-107.129926-81.832773-176.203094-210.683397-176.203094-355.484294 0-144.800897 69.041446-273.568632 176.203094-355.485317L240.164337 343.432049c-7.105838 11.197016-21.211091 16.426111-34.19787 11.724019-21.887496-7.972579-37.166481-25.998117-42.680055-46.877657-0.056282-0.249687-0.282433-0.670266-0.282433-0.670266-1.003863-3.409656-3.608178-5.314029-6.964622-5.314029-2.045589 0-3.865028 0.781806-5.124717 2.041496-18.303878 21.632693-29.386284 49.426713-29.386284 79.873142 0 30.531364 11.082406 58.410318 29.526477 79.902818 1.289366 1.318018 2.993171 2.043542 4.984524 2.043542 3.356444 0 6.182816-2.349511 6.964622-5.460362l0 0.032746c-0.277316 1.144056-0.530073 2.322905-0.781806 3.496637 4.535293-22.641673 20.344351-42.513256 43.744293-50.963719l0 0 0 0L205.966467 413.315676zM921.190985 355.188814c-22.10853-8.090259-37.415145-26.053376-42.817178-47.216371l-0.085958-0.221034c-0.725524-3.110851-3.552919-5.40101-6.969739-5.40101-2.459005 0-4.782933 1.228991-6.042623 3.242857-17.744129 21.327748-28.492938 48.697095-28.492938 78.671781 0 29.890774 10.719132 57.316403 28.492938 78.724992 1.286296 1.90335 3.527336 3.251044 6.042623 3.251044 3.275603 0 6.102998-2.299369 6.828522-5.347798 0 0 0.085958-0.165776 0.141216-0.165776 5.372358-21.162995 20.793582-39.268352 42.87653-47.38317 15.057951-5.371334 31.512714 2.347464 36.970006 17.153682 0.726547 1.904373 1.173732 3.892657 1.37123 5.767354-14.272052 123.416867-78.949097 231.617172-173.013449 303.486012l0-710.971657c94.034676 71.868841 158.741397 180.064029 173.013449 303.45736-0.196475 1.960655-0.644683 3.861958-1.37123 5.767354-5.457292 14.829753-21.912056 22.610974-36.970006 17.207917l0 0 0 0L921.190985 355.188814zM921.190985 355.188814"  horiz-adv-x="1024" />

    
    <glyph glyph-name="yonghu" unicode="&#58997;" d="M588.487533 344.117664 435.468464 344.117664c-142.210909 0-257.869069-114.042359-257.869069-254.289544l0-15.08558c0-73.326029 113.814162-73.326029 257.869069-73.326029l153.020092 0c138.40421 0 257.913071 0 257.913071 73.326029l0 15.08558C846.401628 230.022093 730.691279 344.117664 588.487533 344.117664zM504.331855 363.521596c112.616894 0 204.248847 90.391706 204.248847 201.542202 0 111.129007-91.631954 201.520713-204.248847 201.520713-112.605637 0-204.234521-90.413196-204.234521-201.520713C300.097334 453.963445 391.727241 363.521596 504.331855 363.521596z"  horiz-adv-x="1024" />

    
    <glyph glyph-name="huaxiayinxing" unicode="&#58890;" d="M364.34944 759.53152c50.64704 42.17856 110.52544 77.29664 185.93792 97.4848 44.93824 12.02176 90.68032 17.41312 134.92224 16.57856 2.688-2.94912 14.47936-40.63744 28.78976-47.6416 14.27968-7.03488 69.55008 9.92256 96.768-26.96192 11.99104-23.3984-5.08928-33.90464 10.15808-48.60416 101.79072-59.35616 120.94976 14.2592 161.36192-54.67648 17.98144-57.3696-69.77024-45.96736-92.76928-111.488-6.81984 11.06944-30.4384 23.5264-38.73792 29.35296-71.75168 44.81536-156.08832 61.49632-244.27008 37.87264C437.7088 606.22336 336.97792 435.5072 382.22848 266.74176c45.19424-168.80128 216.38144-266.56256 385.14176-221.3632 49.792 13.35808 110.34112 47.04256 146.24256 79.2832 30.21824 22.87616 55.63904 60.71808 83.15904 73.088 0 0-18.28864-21.76512-22.528-38.71744 0 0 7.93088-2.47808 23.30112 12.73344 15.43168 15.22176 27.02848 43.9552 26.43968 44.288-1.3312-10.37312 5.12-36.73088-23.58784-72.77568-17.32096-24.54528-35.54816-41.28256-35.11808-41.68704 5.21216 2.04288 15.68768 9.08288 29.78816 18.688 12.3392 8.99072 28.91776 39.17312 28.91776 39.17312-0.83968-14.49984-20.608-70.8864-45.10208-100.05504-38.33856-51.8144-84.77184-86.22592-84.77184-86.22592-24.07936-18.95936-48.29184-34.55488-93.5424-48.2304-257.57184-68.98688-520.9344 84.28544-590.73536 339.17952-16.6656 59.60704-16.70144 127.88736-11.6224 193.408 0.65024-0.68608-46.70464-28.64128-101.56544-28.26752C38.74816 429.67552 0 476.35968 0 528.92672c0 49.37728 57.87136 116.9152 57.9072 113.62816 0.61952-2.38592-3.16928-56.69376 49.80736-58.33728 107.8272 10.88 159.872 95.40608 244.26496 164.70528L364.34944 759.53152 364.34944 759.53152zM597.61152 468.08576l232.81152 0c26.31168 0 47.6416-21.3248 47.6416-47.6416l0-145.95584c0-26.27584-21.32992-47.63136-47.6416-47.63136l-232.81152 0c-26.28096 0-47.6416 21.35552-47.6416 47.63136L549.96992 420.44416C549.96992 446.76096 571.33056 468.08576 597.61152 468.08576L597.61152 468.08576z"  horiz-adv-x="1025" />

    
    <glyph glyph-name="zhongminqianbaokuaijiezhifu" unicode="&#59035;" d="M895.847783 90.358193c0-10.712993-1.829671-20.713764-5.495154-30.014594-3.663436-9.299807-8.877181-17.472953-15.638165-24.518417-6.765077-7.049556-14.657838-12.544711-23.676236-16.486486-9.016351-3.944845-18.881023-5.91778-29.592992-5.91778L207.624223 13.420917c-10.707876 0-20.85498 1.972934-30.43722 5.91778-9.580193 3.942799-18.033725 9.437953-25.362644 16.486486-7.329942 7.045463-13.108552 15.21861-17.33276 24.518417-4.229325 9.30083-6.341429 19.301602-6.341429 30.014594L128.15017 512.256082c0 21.417799 7.466042 39.594787 22.404266 54.531987 14.937201 14.937201 33.114189 22.407336 54.535057 22.407336l613.821013 0c21.418822 0 39.597857-7.471159 54.535057-22.407336s22.403243-33.114189 22.403243-54.531987l0-114.986871L703.925682 397.269211c-21.420869 0-39.59888-7.325849-54.536081-21.980617s-22.402219-32.692586-22.402219-54.111408c0.563842-14.654768 3.663436-27.622104 9.299807-38.895869 4.505617-9.581216 11.977799-18.318204 22.404266-26.205848 10.428513-7.891737 25.50693-11.839653 45.234227-11.839653l191.923124 0L895.848807 90.358193 895.847783 90.358193zM780.863982 628.088204 397.012617 628.088204c30.439266 15.779382 59.183937 30.996968 86.23913 45.651736 23.675212 12.402471 47.069015 24.803919 70.179362 37.204343 23.107277 12.396331 41.146119 21.979594 54.110385 28.744671 19.727297 10.707876 37.341466 15.643282 52.842509 14.797008 15.497972-0.847298 28.604478-3.523243 39.311331-8.03193 12.401448-6.200212 23.112394-14.372336 32.131815-24.51944L780.863982 628.088204zM665.879158 321.176163c0 10.705829 3.663436 19.724227 10.989285 27.054169 7.328919 7.324826 16.34834 10.989285 27.056216 10.989285 10.707876 0 19.726274-3.664459 27.055193-10.989285 7.325849-7.329942 10.989285-16.349363 10.989285-27.054169 0-10.709923-3.663436-19.868513-10.989285-27.480888-7.328919-7.606235-16.34834-11.413957-27.055193-11.413957-10.708899 0-19.727297 3.808746-27.056216 11.413957C669.542594 301.307649 665.879158 310.46624 665.879158 321.176163L665.879158 321.176163zM665.879158 321.176163"  horiz-adv-x="1024" />

    
    <glyph glyph-name="qq" unicode="&#58888;" d="M459.353 806.95c-121.173-26.965-205.824-126.635-215.723-252.928-1.024-15.701-3.413-28.331-5.12-28.331-5.12 0-16.384-21.845-16.384-31.744 0-5.12-2.389-13.312-5.461-17.749-4.096-6.485-5.12-14.336-4.096-33.109l1.365-24.917-21.504-28.331c-52.565-68.949-73.045-142.336-57.344-203.776 7.168-26.962 11.605-31.403 25.6-25.6 10.923 4.437 39.253 33.792 45.397 47.104 3.755 8.192 9.216 10.24 9.216 3.413 0-8.189 20.821-48.466 36.181-70.315 8.533-11.947 15.019-22.187 14.336-22.528-0.341-0.683-7.168-4.441-14.677-8.192-27.989-14.336-40.277-35.157-40.619-70.656-0.341-12.288 1.707-20.135 6.485-26.962 3.755-5.465 8.533-12.629 10.581-16.043 11.947-20.48 33.792-30.72 79.531-37.547 34.133-4.779 57.685-2.731 124.928 10.581 67.925 13.312 96.253 13.312 166.912-0.683 100.007-19.797 160.768-13.309 192.853 20.48 23.893 25.945 31.061 47.107 22.866 67.243-2.731 6.144-4.093 12.291-3.072 12.971 0.686 1.027-1.021 6.485-3.755 12.291-6.485 11.947-22.866 25.255-40.619 32.768l-12.288 5.12 18.094 26.624c9.895 14.681 22.187 37.547 27.648 51.2l9.557 24.576 12.629-19.456c13.312-20.48 31.744-39.595 41.639-43.008 14.339-5.12 26.286 24.576 29.013 70.997 1.365 24.576 0.345 36.864-5.461 59.733-8.192 33.792-34.813 88.747-55.979 117.077-14.674 19.456-15.015 19.456-11.602 37.547 4.096 23.211-1.362 50.859-14.677 72.021-8.192 12.629-10.923 22.187-13.653 45.739-12.629 111.275-90.795 204.8-199.68 239.616-31.747 10.233-98.304 12.623-133.12 4.772zM606.467 684.070c15.019-9.899 25.941-33.451 27.989-59.051 5.465-79.189-55.975-116.395-88.747-53.589-11.264 20.821-10.923 65.877 0.345 88.405 12.964 26.965 39.933 37.547 60.413 24.235zM463.107 680.656c15.36-10.24 26.283-33.451 27.989-60.757 1.707-30.72-3.413-50.176-18.432-66.56-13.653-15.36-27.648-19.456-43.349-12.629-24.576 10.581-37.547 35.499-37.547 73.728 0 28.672 8.192 50.176 24.235 63.829 11.264 9.557 34.475 10.581 47.104 2.389zM610.563 515.792c44.373-11.264 92.843-36.181 92.843-48.128 0-6.485-30.041-25.6-48.469-30.72-10.923-3.413-10.585-2.389 3.413 16.384 12.291 16.384 7.171 16.725-13.653 1.024-75.776-57.003-167.253-58.368-240.981-3.072-10.24 7.509-19.115 12.971-19.797 11.947-1.024-0.683 1.707-7.168 5.803-13.995 4.096-6.827 6.485-13.312 5.461-14.336-2.389-2.389-30.72 9.899-43.349 19.115-5.803 4.096-10.24 10.24-10.24 13.995 0 14.336 62.123 42.325 115.712 52.565 36.864 7.168 115.712 4.437 153.259-4.779v0zM390.062 396.326c28.331-9.899 78.507-17.408 114.347-17.408 21.504 0 31.744-1.362 31.744-4.096 0-5.12-67.243-1.362-104.448 5.803-29.355 5.461-59.392 14.677-64.171 19.115-5.461 4.779 1.707 3.755 22.528-3.413v0zM585.646 378.918c-5.461-1.362-18.773-2.389-29.013-2.389h-18.773l20.48 2.389c11.264 1.365 24.235 2.389 29.013 2.389 7.506 0.341 7.168 0-1.707-2.389zM309.849 328.4c2.731-1.707 2.048-13.653-2.731-46.763-8.192-54.955-6.485-76.117 7.851-92.16 12.971-15.015 35.499-23.211 63.829-23.549 47.104-0.683 51.541 5.461 51.541 71.68v43.346l28.331-3.069c103.083-10.923 202.411 9.895 275.118 58.368 10.24 6.827 19.794 10.923 21.159 9.557 12.629-12.626 17.408-95.573 8.192-132.437-27.307-105.469-121.173-179.883-233.813-185.003-79.189-3.755-144.043 20.48-197.973 74.069-40.96 40.96-64.512 89.429-69.973 145.411-2.389 26.279 2.731 70.653 10.581 89.426l4.779 11.267 14.336-8.878c8.192-4.782 16.384-9.902 18.773-11.267v0zM280.494 100.39c2.731-3.072 10.24-9.216 16.725-13.312 6.485-4.437 18.091-13.653 25.941-20.821 7.509-7.509 24.917-22.187 38.229-33.109 17.749-14.336 24.576-22.187 24.576-27.648 0-10.24-6.827-12.291-47.104-12.291-56.32 0-99.669 15.705-110.592 39.598-3.755 7.851-3.072 11.264 4.779 25.6 8.192 15.701 8.533 16.722 2.389 18.429-8.533 2.731-4.779 9.216 10.581 20.48 13.995 9.561 27.989 10.926 34.475 3.075v0zM774.403 101.072c19.118-9.899 26.624-25.945 11.947-25.945-4.775 0-4.775-1.024 0.683-6.827 3.413-3.755 6.827-13.995 7.851-23.211 1.362-15.36 0.683-17.067-10.923-27.307-19.115-16.725-44.373-22.869-93.525-22.187-31.399 0-43.687 1.365-47.101 5.12-7.171 6.827 1.021 16.725 25.255 30.379 30.375 17.408 42.322 26.624 46.425 34.475 2.048 4.096 8.533 8.533 14.333 10.24 6.827 1.707 13.995 7.509 20.139 16.384 10.581 15.363 11.947 15.705 24.917 8.878zM562.432 635.6c-8.189-8.875-13.309-24.917-10.919-34.133 2.731-11.264 9.213-7.851 13.653 8.192 4.437 16.725 17.408 20.821 20.48 6.827l3.413-17.749c3.413-15.36 10.24-7.168 10.24 12.288-0.341 14.677-1.707 19.115-8.192 24.235-9.902 8.192-21.504 8.192-28.675 0.341v0zM446.041 638.672c-13.312-14.677-12.288-43.008 2.048-53.248 10.581-7.168 15.36-6.485 24.917 3.413 6.485 6.144 8.533 11.947 8.533 23.893 0 25.6-21.504 41.301-35.499 25.941v0zM469.593 617.51c0-9.557-9.899-12.971-13.312-4.437-2.389 6.485 3.755 16.043 9.557 13.995 2.048-0.683 3.755-4.779 3.755-9.557v0z"  horiz-adv-x="1024" />

    
    <glyph glyph-name="umidd17" unicode="&#58906;" d="M938.7008 226.474667 938.7008 646.587733c0 90.555733-73.5232 164.078933-164.1472 164.078933L249.378133 810.666667c-90.555733 0-164.078933-73.489067-164.078933-164.078933l0-525.2096c0-90.555733 73.454933-164.078933 164.078933-164.078933l525.2096 0c80.725333 0 147.8656 58.368 161.553067 135.099733-43.52 18.8416-232.106667 100.283733-330.376533 147.182933-74.786133-90.589867-153.088-144.930133-271.121067-144.930133s-196.8128 72.704-187.357867 161.655467c6.2464 58.402133 46.2848 153.9072 220.296533 137.5232 91.682133-8.6016 133.666133-25.736533 208.418133-50.414933 19.3536 35.4304 35.4304 74.513067 47.616 116.0192L292.0448 459.434667l0 32.8704 164.0448 0 0 58.9824L256 551.287467l0 36.181333 200.123733 0L456.123733 672.6656c0 0 1.809067 13.312 16.520533 13.312l82.056533 0 0-98.474667 213.333333 0 0-36.181333-213.333333 0 0-58.9824 174.045867 0c-16.008533-65.1264-40.277333-124.962133-70.690133-177.220267C708.608 296.823467 938.7008 226.474667 938.7008 226.474667L938.7008 226.474667 938.7008 226.474667 938.7008 226.474667zM321.570133 151.005867c-124.7232 0-144.452267 78.7456-137.8304 111.650133 6.5536 32.733867 42.666667 75.502933 112.0256 75.502933 79.6672 0 151.04-20.445867 236.714667-62.088533C472.302933 197.666133 398.370133 151.005867 321.570133 151.005867L321.570133 151.005867 321.570133 151.005867zM321.570133 151.005867"  horiz-adv-x="1024" />

    
    <glyph glyph-name="jiaotongyinxing" unicode="&#58962;" d="M809.896714 128.156054c-60.409858-1.876744-116.209722-3.827165-176.563298-5.782703-38.184671-161.779593-354.464057-118.091582-319.257208 87.230714 17.73185 121.601522 183.015244 174.74693 285.479917 82.82845 22.548552-25.245987 33.55421-48.759517 40.856523-100.342336 50.608631 2.028193 118.884644 3.982708 169.484066 5.860475 2.597151 261.585717-296.151977 394.455887-520.178263 267.373537C74.975599 343.719598 99.804077-27.05289 324.767711-121.787508l0-5.865591C202.067158-125.222747 67.511603-30.663114 38.159088 81.651904l1.720178 603.25333c97.326653 65.840544 204.971301 144.859225 302.498522 210.747865 3.809769-2.000564 7.693216-3.866051 11.620665-5.866614-6.67605-90.856287-2.441609-240.748133 2.989077-350.252129 60.977793 58.934251 102.157681 120.555703 207.523427 140.997268 67.884087 13.161764 132.802632 5.190209 173.818791-8.682753 307.866786-104.923678 327.040475-500.552274 65.834404-636.69907-5.877871 0-18.710131-11.497868-28.196179-13.352099 0 1.949398 5.966898 10.380418 10.759041 19.134803C794.415115 70.015889 802.213731 99.083925 809.896714 128.156054L809.896714 128.156054 809.896714 128.156054zM809.896714 128.156054"  horiz-adv-x="1024" />

    
    <glyph glyph-name="unie737" unicode="&#58902;" d="M608.992 224q-36.992 0-68.992 4-12.992 0.992-20.992 11.488t-6.496 23.488 11.488 21.504 23.008 6.496q44-3.008 88.992-2.016t84.512 12.992 49.504 32q6.016 12 18.496 16.512t24.512-0.992 16.512-18.016-1.504-24.512q-40-83.008-219.008-83.008zM896 256q-12.992 0-22.496 9.504t-9.504 22.496l0 110.016-43.008 16q-20.992 7.008-20.992 30.016 0 119.008-84.512 203.488t-203.488 84.512-203.488-84.512-84.512-203.488q0-8-3.488-15.008t-9.504-11.008l-19.008-14.016 0-116q0-12.992-9.504-22.496t-22.496-9.504-22.496 9.504-9.504 22.496l0 132.992q0 4.992 1.504 10.016t4.512 8.992 7.008 7.008l19.008 12.992q7.008 140 108.992 238.016t243.008 98.016q92 0 170.496-44t126.496-119.488 54.016-166.496l44-15.008q20.992-8 20.992-30.016l0-132.992q0-12.992-9.504-22.496t-22.496-9.504zM640 112l0 10.016q48 36.992 64 72.992-19.008-3.008-88-3.008l-18.016 0q-11.008 0-18.016-0.512t-15.008 0-14.016 0.512-11.008 0.992q-26.016 3.008-43.008 24.992t-14.016 48.992q3.008 26.016 24 42.496t47.008 13.504q55.008-4.992 106.016-0.512t75.008 14.496q0.992 20.992 0.992 84 0 50.016-15.008 91.008t-43.008 69.504-68.512 44-89.504 16.512l-20 0q-40-0.992-73.504-11.008t-59.488-28.992-44-45.504-27.008-60.992-8.992-75.488q0-35.008 0.512-57.504t6.016-61.504 15.008-67.008 28.992-59.488 46.496-52.512l0-10.016q-100-15.008-163.008-52.992t-63.008-88.992q0-22.016 20.992-31.008 6.016-3.008 12-3.008l628 0q8 0 17.504 4.992t15.488 12.992 6.016 16q0 51.008-60 88.992t-158.016 52.992z"  horiz-adv-x="1024" />

    
    <glyph glyph-name="guangdayinxing" unicode="&#59118;" d="M139.552 853.344l478.72 0c0 0 90.304 0 107.328-25.568l-88.608 0 0-27.264 136.288-1.664c0 0 22.144-15.328 22.144-27.264l-158.432-1.696 0-25.536 175.488 0c0 0 20.48-10.24 15.392-32.384l-546.848 0 0-28.96 555.296 1.728c0 0 3.424-22.144 3.424-28.96l-558.72 0 0-28.928 560.416 1.664c0 0 3.424-17.024-5.088-28.928l-555.296-5.152 0-27.264 546.848 3.424c0 0 0-22.144-13.696-28.96l-533.152-3.424 0-25.536 516.16 3.424c0 0-1.76-27.264-20.48-32.384l-495.68-1.664 0-27.264 454.816 3.392c0 0-10.208-34.08-80.096-30.624l-85.12 1.664 0-25.536 137.952-1.728c0 0 57.952 0 66.464-23.84l-204.416-5.152 0-25.536 240.192 0c0 0 22.144-17.024 22.144-27.264l-551.968-3.392 0-30.688 563.84 5.088c0 0 22.144-15.296 22.144-30.624l-585.984-3.392 0-25.568 594.496 0c0 0 6.784-8.512 3.424-23.872l-597.952-5.088 0-25.536 597.952 0c0 0 5.088-15.328 0-27.264l-597.952-3.424 0-27.264 592.832 0c0 0 5.088-17.024-8.512-30.624l-584.32 0 0-27.264 572.352 1.728c0 0-1.664-27.296-13.632-28.96l-202.752 0 0-28.96 175.488 1.696c0 0-11.936-27.264-23.84-30.688l-151.648-1.728 0-28.928 102.24 1.664c0 0-15.392-32.352-149.888-27.264l-449.792 1.696 0 931.872 0 0z"  horiz-adv-x="1024" />

    
    <glyph glyph-name="wechat-copy" unicode="&#58995;" d="M693.12 548.736c11.776 0 23.36-0.896 35.008-2.176-31.36 146.048-187.456 254.528-365.696 254.528-199.232 0-362.432-135.744-362.432-308.224 0-99.52 54.272-181.248 145.024-244.736l-36.224-108.992 126.72 63.488c45.312-8.896 81.664-18.112 126.912-18.112 11.392 0 22.656 0.512 33.792 1.344-7.040 24.256-11.2 49.6-11.2 76.032 0.064 158.336 136 286.848 308.096 286.848zM498.304 646.976c27.392 0 45.376-17.984 45.376-45.248 0-27.136-17.984-45.312-45.376-45.312-27.072 0-54.336 18.176-54.336 45.312 0 27.328 27.2 45.248 54.336 45.248zM244.672 556.416c-27.2 0-54.592 18.176-54.592 45.312 0 27.264 27.392 45.248 54.592 45.248s45.248-17.92 45.248-45.248c0-27.136-18.048-45.312-45.248-45.312zM1024 266.24c0 144.896-145.024 262.976-307.904 262.976-172.48 0-308.224-118.144-308.224-262.976 0-145.28 135.808-262.976 308.224-262.976 36.096 0 72.512 9.024 108.736 18.112l99.392-54.528-27.264 90.624c72.768 54.656 127.040 127.040 127.040 208.768zM616.128 311.616c-17.984 0-36.224 17.92-36.224 36.224 0 18.048 18.24 36.224 36.224 36.224 27.52 0 45.376-18.176 45.376-36.224 0-18.304-17.856-36.224-45.376-36.224zM815.488 311.616c-17.856 0-36.032 17.92-36.032 36.224 0 18.048 18.112 36.224 36.032 36.224 27.264 0 45.376-18.176 45.376-36.224 0-18.304-18.112-36.224-45.376-36.224z"  horiz-adv-x="1024" />

    
    <glyph glyph-name="yinlianzhifu" unicode="&#59161;" d="M596.928 323.84l2.944 9.728L558.72 333.568 552.768 313.792c0 0 7.936 7.232 21.632 9.6C577.472 324.032 596.928 323.84 596.928 323.84zM654.144 243.712 675.2 243.712 681.28 263.936 660.288 263.936ZM742.464 401.792c3.2 0 8.64 2.048 10.944 5.248 1.408 1.856 2.496 4.928 3.52 7.872 0.832 3.392 1.792 6.784 2.624 10.176 0.256 1.088 0.384 1.792 0.64 2.816 1.856 11.264-0.64 18.56-7.04 18.56-8.96 0-12.416-10.944-15.424-23.744-1.024-4.608-1.856-8.832-1.792-12.8C736.064 401.792 741.568 401.792 742.464 401.792zM588.736 298.24 591.36 306.304 550.528 306.304 547.968 298.112l35.328 0C587.52 298.624 588.416 297.984 588.736 298.24zM460.992 403.008c3.2 0 6.08 2.048 8.448 5.44 3.456 4.608 6.016 15.488 6.592 18.304C479.104 440 478.656 448.128 471.68 448.128c-8.896 0-12.48-11.008-15.36-24.128C455.232 419.52 454.4 415.36 454.464 411.264 454.592 403.008 460.096 403.008 460.992 403.008zM676.672 459.392c7.424 3.648 13.248 11.2 15.232 20.16 2.176 9.792-0.896 17.408-8.448 20.288-0.512 0-19.584 1.664-19.584 1.664l-3.712 0.384-0.192-1.6-0.192-2.048c0 0.128-9.28-40.192-9.28-40.192l-0.384-1.984 5.056 0C662.976 456.064 670.464 456.256 676.672 459.392zM681.472 334.144l-6.976-23.04c0 0 7.808 3.52 12.096 4.672 4.352 1.152 10.88 1.536 10.88 1.536l5.056 16.768L681.472 334.08zM663.808 275.712c0 0 8 4.096 12.288 5.376 4.288 0.96 10.88 1.792 10.88 1.792l5.12 16.768-21.12 0L663.808 275.712zM915.072 664.256l-213.44 0-10.176 0L463.104 664.256l-18.56 0L239.488 664.256c-31.296 0-62.528-25.536-69.824-56.832l-104.128-446.976c-7.296-31.232 12.096-56.704 43.328-56.704l205.056 0 18.624 0 228.416 0 10.112 0 213.376 0c31.296 0 62.528 25.472 69.824 56.704l104.128 446.976C965.824 638.72 946.304 664.256 915.072 664.256zM765.12 455.424c0.192 1.216 0.32 2.432 0.512 3.712l1.024 0.832c13.504 1.984 17.152 2.496 31.232 5.12l0.512-1.216c-2.624-10.56-5.184-21.248-7.616-31.872-5.184-22.272-7.104-33.664-9.088-45.312l-1.216-0.96c-13.568 0.128-17.472 0.128-30.08-0.448l-0.832 1.024c0.448 1.728 0.896 3.52 1.344 5.248-4.608-3.968-9.536-7.04-14.912-7.36C730.944 384 725.952 384.704 720.384 387.008c-17.408 6.848-14.656 25.92-12.224 36.352 2.368 10.368 6.464 21.12 14.976 28.992 12.096 11.008 26.176 14.08 32.192 11.776C760.256 462.208 763.008 459.008 765.12 455.424zM622.656 476.416c0 0 8.64 40.448 8.64 40.448S632 520 632.32 521.728c4.032-0.512 13.696-0.64 38.016-0.32 0 0 9.28 0.128 9.344 0.128 19.008-0.128 35.456-0.256 43.712-11.84 3.328-4.416 4.416-9.92 4.416-15.552 0-4.224-0.64-8.576-1.536-12.224-3.392-14.656-10.944-26.688-21.888-34.88C688.256 435.2 667.584 435.2 649.28 435.2l-1.92 0c-1.408-0.768-2.688-2.56-2.688-2.56-0.256-0.64-4.416-18.24-4.416-18.24-0.064 0-4.992-24-5.888-28.032C630.784 386.752 622.016 386.752 600.832 386.496 601.792 390.528 622.656 476.416 622.656 476.416zM514.624 414.784c5.568 24.64 6.848 34.048 8.448 46.528L524.096 462.08C537.152 463.872 540.288 464.256 554.368 467.2l1.152-1.344L553.408 457.984C555.712 459.392 558.08 460.8 560.448 462.08c6.656 3.264 14.08 4.224 18.112 4.224 6.144 0 12.928-1.728 15.808-8.832 2.624-6.4 0.896-14.208-2.688-29.632L589.888 419.968C586.24 402.816 585.664 399.68 583.68 387.904L582.272 386.88C571.008 387.008 567.232 387.008 553.984 386.368L553.472 387.328C554.624 392.32 555.84 397.248 557.056 402.368l1.6 6.784c2.432 10.624 4.8 23.04 5.056 26.816 0.192 2.24 1.024 7.872-5.44 7.872-2.752 0-5.568-1.344-8.448-2.624-1.6-5.696-4.8-21.568-6.4-28.864-3.2-15.296-3.328-16.96-4.8-24.576L537.6 386.88C526.016 387.008 521.984 387.008 508.736 386.368l-0.64 1.088C510.336 396.544 512.512 405.76 514.624 414.784zM525.952 342.976 520.576 325.184 480.64 325.184 476.288 321.472C474.496 319.68 473.792 320.448 471.36 319.104 469.12 318.016 464.384 315.712 458.176 315.712l-12.8 0L450.56 332.8l3.904 0c3.264 0 5.504 0.256 6.592 1.024 1.28 0.768 2.688 2.624 4.352 5.568l7.296 13.312 29.12 0L496.64 342.976 525.952 342.976zM276.032 436.096C272.064 421.888 267.456 405.824 250.112 395.584 240.192 389.504 225.408 386.176 209.6 386.176c-12.224 0-33.792 1.984-41.408 15.232C165.824 405.568 164.672 410.496 164.672 416.512l2.688 20.352 1.472 6.336 16.576 73.472c0 0 0.832 4.096 1.024 4.736C186.88 520.96 192.512 520.64 224.256 520.96 224.128 520.704 224.064 520.512 224 520 221.056 511.36 204.8 446.08 204.8 446.08 204.736 446.016 201.664 426.624 201.664 426.624l0.192-3.264c1.024-9.664 6.976-14.72 17.152-14.72 6.336 0 11.776 1.92 16.512 5.824C243.712 420.992 246.144 431.36 249.472 445.888c0.064 0 15.616 71.616 16.448 75.52C268.16 520.96 274.88 520.704 297.856 520.96 297.728 520.704 297.664 520.512 297.6 520 294.72 511.168 277.952 443.328 277.952 443.328L276.032 436.096zM368.128 427.84 366.272 419.968C362.688 402.816 362.112 399.68 360.064 387.904L358.72 386.88C347.52 387.008 343.552 387.008 330.432 386.368L329.856 387.328C331.072 392.32 332.288 397.248 333.376 402.368l1.6 6.784c2.432 10.624 4.8 23.04 5.12 26.816C340.352 438.272 341.12 443.904 334.592 443.904c-2.752 0-5.568-1.344-8.448-2.624C324.544 435.584 321.408 419.712 319.872 412.416 316.608 397.184 316.416 395.456 314.944 387.904L313.984 386.88C302.4 387.008 298.432 387.008 284.992 386.368L284.416 387.456c2.24 9.088 4.48 18.304 6.592 27.264C296.64 439.424 297.92 448.832 299.52 461.312L300.544 462.08C313.536 463.872 316.736 464.256 330.752 467.2l1.152-1.344L329.792 457.984C332.16 459.392 334.464 460.8 336.896 462.08c6.656 3.264 14.016 4.224 18.112 4.224 6.144 0 12.928-1.728 15.68-8.832C373.376 451.072 371.648 443.264 368.128 427.84zM415.296 432.832C414.08 427.456 412.736 422.144 411.52 416.768c-2.56-11.328-3.52-15.552-4.096-18.56-0.64-2.88-0.768-4.48-1.728-10.304l-0.64-0.576L404.48 386.88c-6.784 0-11.2 0.128-15.424 0-4.224 0-8.384-0.256-14.656-0.512L374.016 386.88 373.632 387.456C375.36 393.984 376.32 396.224 377.152 398.528 377.984 400.896 378.816 403.2 380.352 409.792c1.984 8.576 3.136 14.592 4.032 19.904 0.896 5.12 1.408 9.472 2.048 14.464l0.512 0.384 0.576 0.512C394.24 446.016 398.528 446.592 402.88 447.296c4.416 0.64 8.896 1.536 15.808 2.816l0.256-0.64L419.2 448.96C417.92 443.584 416.64 438.272 415.296 432.832zM416.768 455.872C409.344 450.688 398.144 449.536 391.872 453.248 385.536 457.024 386.432 464.192 393.984 469.312c7.488 5.184 18.56 6.336 24.896 2.624C425.152 468.224 424.192 461.056 416.768 455.872zM426.688 424.832C429.184 435.2 433.152 446.08 441.728 454.016 453.76 465.152 469.12 465.792 475.584 465.792c10.688 0 21.056-2.432 26.944-9.856C506.368 450.944 509.376 442.88 505.472 425.6 504.256 420.352 500.8 407.744 493.12 399.232c-9.856-10.496-23.04-14.016-35.904-14.016-4.992 0-12.736 0.64-18.24 2.944C421.44 395.2 424.32 414.272 426.688 424.832zM487.872 219.392 454.976 219.392c-2.624 0-4.608 0.384-7.488 1.024-2.752 0.64-3.968 1.92-5.248 3.776-1.216 1.92-3.008 3.52-1.792 7.616L449.92 263.104 433.728 263.104 439.104 280.96l16.256 0 4.288 14.464L443.584 295.424l5.12 17.024 71.296 0L514.688 295.424 486.208 295.424 481.792 280.96l29.184 0L505.6 263.36 476.48 263.36l-7.04-23.552C468.544 237.248 476.288 236.8 479.104 236.8l14.592 2.048L487.872 219.392zM546.688 219.392l-19.2 0c-6.08 0-10.496 0.128-13.632 0.384-2.944 0.256-6.08 0-8.128 1.6-1.792 1.6-4.544 3.584-4.416 5.76 0.192 1.984 1.024 5.184 2.24 9.664l34.88 115.712 24.896 0L559.808 339.968c0 0 7.872 6.272 13.312 8.512 5.504 2.048 17.92 3.904 17.92 3.904L631.296 352.64 617.6 306.944C615.296 299.072 612.608 294.016 610.944 291.712 609.408 289.344 607.616 287.36 604.096 285.44 600.704 283.648 597.568 282.56 594.688 282.24 592.064 282.048 587.968 281.984 582.336 281.92L543.488 281.92 532.544 245.76c-1.024-3.584-1.536-5.312-0.832-6.272 0.576-0.832 1.856-1.856 3.712-1.856l17.088 1.664L546.688 219.392zM608.768 267.712C607.808 264.32 606.912 261.696 604.352 259.456 601.664 257.216 598.464 254.72 590.976 254.72l-13.824-0.512-0.128-12.416c-0.192-3.584 0.704-3.2 1.28-3.776 0.64-0.64 1.216-0.896 1.792-1.088l4.352 0.192 13.184 0.704-5.376-18.112L577.152 219.712c-10.688 0-18.496 0.256-21.056 2.304-2.56 1.6-2.944 3.648-2.816 7.104L554.24 277.632l24.192 0L578.112 267.712l5.824 0c1.984 0 3.264 0.192 4.16 0.768 0.704 0.576 1.216 1.28 1.6 2.56l2.368 7.68 19.008 0L608.768 267.712zM693.504 219.52l-25.92 0 1.792 5.824L616.576 225.344l5.312 17.216 5.312 0 27.648 91.584 5.504 18.496 26.432 0-2.752-9.344c0 0 7.104 5.12 13.76 6.848 5.76 1.472 34.432 2.176 41.92 2.304L739.712 352.512l28.224 0 0.256-10.496c-0.128-1.792 1.408-2.624 4.672-2.624l5.76 0-5.248-17.408-15.296 0c-13.248-0.96-18.176 4.672-17.856 11.072l-0.256 10.304-2.88-9.216-9.088 0-27.264-90.176 7.296 0-5.696-18.624-7.296 0L693.504 219.52zM810.432 299.712 782.08 299.712l-4.48-14.08 28.416 0-4.672-15.488-30.72 0-5.504-6.592 12.48 0 3.072-19.456c0.32-1.92 0.384-3.2 0.96-4.032 0.64-0.704 4.352-1.088 6.592-1.088l3.712 0-5.76-18.944-9.6 0c-1.536 0-3.712 0.128-6.72 0.256-2.88 0.192-4.928 1.92-6.912 2.88-1.728 0.832-4.352 3.008-4.992 6.656l-3.008 19.456-13.952-19.136c-4.48-6.08-10.496-10.688-20.672-10.688l-19.584 0 5.12 16.96 7.488 0c2.176 0 4.096 0.896 5.44 1.536 1.472 0.64 2.752 1.344 4.16 3.52l20.352 28.736-26.88 0 4.608 15.488 30.72 0 4.416 14.08-30.4 0 5.248 17.472 84.544 0L810.432 299.712zM828.416 353.472l-1.152-1.344 0.128 0L816.448 333.44c-3.456-6.4-9.856-11.136-20.096-11.2l-17.408 0.256 5.12 16.832 3.392 0c1.792 0 3.072 0.192 4.032 0.64 0.896 0.256 1.536 0.96 2.24 1.92l6.144 9.792 0 0.064c8.64 13.12 10.816 18.816 19.904 33.792-1.6 16.768-2.368 22.144-3.712 33.152-0.768 6.528-1.792 13.248-2.56 19.904-1.664 13.568-1.344 11.648-2.944 20.224l-0.064 0.256c0.064 0.512 0.064 0.96 0.192 1.472l1.088 0.896c13.44 1.728 13.824 2.176 28.288 4.928l1.216-1.152 1.92-37.44c0.064-0.768 0.064-1.28 0.128-2.112 7.744 17.216 7.424 12.48 16.96 34.496l0.064-0.192c0.064 0.192 0.064 0.448 0.128 0.576l0.896 0.896c12.8 1.728 15.296 2.176 29.184 4.928l1.024-1.152C891.584 465.152 835.712 369.216 828.416 353.472z"  horiz-adv-x="1024" />

    
    <glyph glyph-name="qianbao" unicode="&#58893;" d="M205.832755 750.382993c-89.836238 0-111.465885 19.376266-112.475779 44.958897 1.008887 18.076393 50.949792 32.544152 81.953428 32.544152L761.044727 827.886042c21.628641 0 42.321897-5.940551 60.274444-16.788602-21.387998 40.555841-62.990987 68.458308-109.494428 68.458308L126.09042 879.555749c-68.397896 0-125.500689-59.944189-125.500689-131.759412l0-614.863162c0-3.619709 0-7.239418 0.240643-10.595326-0.240643-17.306135-0.240643-33.061685-0.240643-46.762207 44.557155-160.684862 169.577566-191.438794 210.913733-197.367263 12.064353-4.139255 24.609992-6.207373 37.635909-6.207373l585.733316 0c68.397896 0 125.500689 59.9311 125.500689 131.760419L960.373379 130.349538 535.85454 130.349538c-115.407793 1.550585-144.462123 80.858957-144.462123 180.841455 0 99.984511 32.227994 180.844475 147.659952 180.844475l421.322016 0L960.374386 618.622574c0 71.81623-57.102793 131.760419-125.500689 131.760419L205.832755 750.382993zM529.702546 440.364756c-44.556148 0-86.133965-57.875065-86.133965-129.173762 0-71.298697 41.57681-129.172755 86.133965-129.172755l442.977843 0c20.667077 0 36.168895 20.925843 35.424816 38.751525L1008.105204 400.062646c0.744079 17.571949-14.756732 40.303116-35.424816 40.303116L529.702546 440.365762zM514.44137 311.190993c0 42.889773 35.928252 80.609253 76.785149 80.609253s76.786155-37.71948 76.786155-80.609253-34.463252-79.055647-75.294976-79.055647C552.102451 232.136353 514.44137 268.302227 514.44137 311.190993z"  horiz-adv-x="1024" />

    
    <glyph glyph-name="zhuanzhang" unicode="&#59286;" d="M954.014 385.305c-31.51-0.303-185.995 88.917-190.874 93.568-11.734 11.188-7.3 25.115 4.673 27.02s79.203 9.898 79.203 9.898c-41.318 110.437-133.518 198.636-254.527 227.223-193.138 45.643-392.87-83.827-437.013-281.424-0.38-1.685-3.047-21.83-19.045-21.191-10.83 0.432-46.309 14.539-59.136 20.556-14.644 6.868-18.601 5.094-14.16 27.201C113.37 739.357 370.632 908.653 617.554 850.728c204.919-48.063 347.27-225.878 362.91-428.477 2.619-27.151-11.203-36.797-26.451-36.944z m-322.516-55.059c20.284 0 36.729-16.427 36.729-36.727 0-20.265-16.445-36.729-36.729-36.729h-73.456v-45.909c0-25.359-20.551-45.911-45.911-45.911-25.358 0-45.91 20.551-45.91 45.911V256.79h-73.456c-20.284 0-36.727 16.465-36.727 36.729 0 20.302 16.444 36.727 36.727 36.727h73.456v36.73h-73.456c-20.284 0-36.727 16.461-36.727 36.726 0 20.3 16.444 36.729 36.727 36.729h73.456v2.512l-81.508 81.491c-14.445 14.455-14.445 37.875 0 52.313s37.858 14.437 52.304 0l74.497-74.478 74.786 74.784c14.444 14.419 37.859 14.419 52.303 0 14.446-14.454 14.446-37.877 0-52.313l-80.558-80.559v-3.749h73.456c20.284 0 36.729-16.429 36.729-36.729 0-20.267-16.445-36.726-36.729-36.726h-73.456v-36.73h73.456z m-368.471-51.828c16.112-10.302 12.229-30.994-5.477-32.836s-73.153-6.725-73.153-6.725C228.353 135.843 317.44 54.621 432.63 27.415c193.137-45.623 390.651 77.582 434.806 275.179 0.906 4.054 0.877 3.418 2.457 12.122s4.139 21.945 21.142 16.052 58.475-18.085 71.394-21.539 11.465-8.548 9.846-20.553c-0.493-3.651-1.238-6.994-2.017-10.509-57.81-256.921-309.451-417.196-562.049-357.924-204.677 48.01-346.947 225.429-362.865 427.724-2.159 34.762 22.4 41.857 47.505 28.577 19.75-10.447 154.064-87.822 170.176-98.124z"  horiz-adv-x="1024" />

    
    <glyph glyph-name="xinfeng_kong" unicode="&#59038;" d="M856.717577 36.29488H164.48675c-55.994292 0-101.547791 44.647873-101.547791 99.529831V640.164241c0 54.876842 45.553499 99.525738 101.547791 99.525737h692.230827c31.54546 0 52.950979-9.188266 63.605644-27.313066 11.346419-19.287275 7.243985-40.931225-11.254322-59.382458l-11.259438-11.238972c-0.045025-0.044002-0.596588-0.599657-1.638313-1.633197-0.101307-0.104377-0.203638-0.204661-0.304945-0.303922l-30.663371-30.598902-0.073678-0.071631c-27.030633-26.970258-69.532633-69.372997-122.575709-122.293277L616.174106 360.76174c-26.245757-26.187429-52.491515-52.372811-78.741365-78.560241l-6.79373-6.776333c-3.322675-3.323699-7.872295-5.194302-12.621459-5.194303h-0.023536c-4.758374 0.00921-9.307993 1.890047-12.631692 5.228072l-352.140129 353.504196a17.099447 17.099447 0 0 0 0.299829 24.515347c6.992251 6.685259 18.188244 6.553253 25.01472-0.293689L518.056438 312.344007c24.298406 24.235984 48.590672 48.470945 72.879867 72.712045l292.898887 292.231691c10.270924 10.247388 7.281847 15.332197 5.843078 17.777898-3.720741 6.329149-15.737426 9.956769-32.960693 9.95677H164.48675c-36.488029 0-66.173119-29.097712-66.173119-64.862264v-504.335436c0-35.764552 29.68509-64.863287 66.173119-64.863287h692.230827c36.493146 0 66.178235 29.098735 66.178236 64.863287v437.279205c-0.017396 3.584642 0.429789 23.417339 0.429788 74.709538 0 9.572006 8.402367 16.448624 18.172895 16.448624 8.28264 0 16.783245-7.014764 16.783245-16.58984 0-39.568181-0.01228-74.05053-0.01228-74.40664v-437.440887c0.00614-54.881958-45.552475-99.529831-101.551884-99.529831z m0 0"  horiz-adv-x="1024" />

    
    <glyph glyph-name="shouye" unicode="&#58963;" d="M805.69344-77.0048a93.184 93.184 0 0 0-4.66944 0.1024H203.264c-40.0384 0-63.08864 16.8704-75.3664 31.01696-26.92608 31.0016-24.76032 73.0368-23.552 84.70016v359.5264h64v-363.90912l-0.29696-1.88416c-0.76288-6.4-0.83456-26.27584 8.28928-36.608 1.93024-2.18624 7.80288-8.83712 26.9312-8.83712h600.30976l0.74752-0.08192c2.1504-0.0768 22.31808-0.4352 34.9952 11.55584 8.45312 7.99232 12.74368 21.21216 12.74368 39.29088v360.7552h64v-360.7552c0-45.8752-18.24768-72.3712-33.55648-86.528-27.53536-25.46176-62.4128-28.34944-76.81536-28.34944zM136.35072 368.3072H37.9904A32 32 0 0 0 16.76288 424.2432l472.2176 419.09248a32 32 0 0 0 42.22464 0.22528l478.78144-415.79008a32 32 0 0 0-20.06528-56.14592l-104.93952-3.01568a32 32 0 0 0-1.83808 63.9744l22.9376 0.66048-395.62752 343.5776L122.2656 432.31232h14.08a32 32 0 0 0 0-64z m266.6496-413.51168a26.99776 26.99776 0 0 0-27.00288 26.99776v225.8432c0 4.86912 1.23904 24.90368 20.0192 43.99616 22.80448 23.17312 61.46048 34.92352 114.90304 34.92352 52.63872 0 90.88-11.90912 113.65376-35.39968 19.2256-19.82976 20.46464-40.704 20.4288-46.24384v-222.25408a26.99776 26.99776 0 1 0-54.00064 0v221.93664c-0.1792 1.16224-1.31072 6.10304-8.01792 11.54048-7.56736 6.13376-26.99776 16.41984-72.064 16.41984-52.2752 0-70.84544-13.14304-76.40576-18.7904-2.72896-2.77504-3.87584-5.14048-4.35712-6.6304a7.8848 7.8848 0 0 1-0.1536-0.54784v-224.7936a26.99776 26.99776 0 0 0-27.00288-26.99776z m6.99904 215.19872L400.9984-35.9936l-237.99808 12.99968-16.9984 254.0032 4.99712 165.99552-70.99904 22.99904 429.0048 389.00224 422.99392-368.9984-42.99776-41.00096-18.00192-370.00192-16.9984-57.00096-224-7.99744-3.99872 148.99712-14.0032 100.00384-28.00128 22.99904-54.99904 9.00096-67.9936-6.00064-42.00448-6.00064z"  horiz-adv-x="1024" />

    
    <glyph glyph-name="chat" unicode="&#58973;" d="M834.112 683.2a45.248 45.248 0 0 1-32.576 13.888c-1.344 0-2.432-0.64-3.84-0.768L56.256 696c-1.92 0.256-3.648 1.152-5.696 1.152a45.184 45.184 0 0 1-32.768-14.08 45.632 45.632 0 0 1-13.952-32.768c0-1.984 0.896-3.584 1.152-5.44l0.448-515.136c-0.512-2.56-1.6-4.736-1.6-7.552 0-19.2 11.84-35.456 28.544-42.176 5.76-2.56 12.032-4.16 18.688-4.16 1.344 0 2.368 0.64 3.648 0.768l206.72 0.384c25.216 0 45.696 20.352 45.696 45.632s-20.48 41.472-45.696 41.472l-167.36-0.384 1.92 433.728c3.264 5.76 8.768 9.152 21.12 9.984l-21.12-0.128v0.192H118.592l567.04 0.32 39.424-0.32c-3.712 0.256-8.64 0.256-13.056 0.32h46.72l0.256-220.16c0-0.64-0.32-1.152-0.32-1.792l0.32-220.736-316.8-1.536c-19.136 0-35.456-9.536-42.176-25.216l-173.312-178.432a45.824 45.824 0 0 1 0-64.64 45.824 45.824 0 0 1 64.576 0l172.032 181.12 333.248 0.384c1.856-0.256 3.52-1.152 5.44-1.152a45.312 45.312 0 0 1 42.24 28.8 45.312 45.312 0 0 1 3.712 17.92c0 0.576-0.32 1.024-0.32 1.472l-0.32 212.992c0 0.512 0.32 0.96 0.32 1.472l-0.384 308.928c0.064 1.152 0.704 2.112 0.704 3.264a45.696 45.696 0 0 1-13.824 32.704z m-75.392-127.232l-0.32 51.264-33.344 0.256c27.648-1.984 32.832-11.392 33.664-51.52z m268.032 272.256a44.16 44.16 0 0 1-28.224 42.56 41.344 41.344 0 0 1-17.472 3.776c-1.344 0-2.432-0.64-3.776-0.768L215.872 873.408a45.632 45.632 0 0 1-45.632-45.632c0-25.216 20.416-44.224 45.632-44.224l719.424 0.448 0.448-490.688c0-25.152 20.352-45.632 45.632-45.632 25.152 0 42.816 20.48 42.816 45.632l-0.512 518.08a47.424 47.424 0 0 1 3.072 16.832z"  horiz-adv-x="1026" />

    
    <glyph glyph-name="user" unicode="&#58980;" d="M583.552-97.344l17.28 99.392-72.768 70.4c-25.216 24.192-34.24 56.96-24.256 87.424 10.048 30.4 36.672 51.52 71.36 56.448l87.936 12.8c-13.377 9.025-24.36 20.556-32.498 34.002 7.738-14.133-2.83 2.008-7.76 20.452 1.152-6.083-1.911 6.129-2.167 19.030-0.455 6.388 0.185 16.692 2.169 26.868 1.408 8.128 3.584 15.104 6.208 20.864 3.987 8.747 10.205 15.889 17.939 20.888-3.539-2.2 1.069 1.768 6.701 5.352 5.632 3.776 11.2 8.128 17.472 13.696 5.376 4.8 10.24 11.328 14.784 19.904 15.45 29.706 26.313 64.317 30.583 100.941-8.543-45.891-1.689-12.141 0.148 22.937 0.137-63.542 8.522-57.655 14.646-49.899 0.319-0.827 5.119 5.765 9.727 14.277 4.224 8.576 7.68 19.712 9.6 33.984 1.408 10.944 1.28 19.904-0.384 27.456-2.041 9.911-6.024 18.651-11.554 26.186 2.114-1.562-2.985 3.322-9.289 5.823 3.082 2.078 3.136 6.19 3.136 10.315 0 24.546-1.916 48.645-5.606 72.155-6.45 41.884-19.216 81.962-37.273 118.987 5.962-7.071-17.43 27.534-47.849 54.354 11.62-9.502-11.073 6.92-37.041 16.626 7.335 2.171-27.391 17.712-65.126 24.663 29.666-4.74-5.16 4.827-41.897 7.51 33.944-3.849 14.698-1.256-5.154-1.256-0.386 0-0.772-0.001-1.157-0.003-15.749 0-31.941-1.536-48.581-4.16-29.063-5.134-55.038-14.805-78.494-28.351 12.446 7.359-3.81-1.985-19.81-13.889-16-11.968-30.464-27.072-43.52-45.376-20.497-29.342-34.349-64.765-38.618-103.080-4.783-3.023-11.788-49.131-11.788-96.876 0-4.426 0.060-8.839 0.18-13.236-8.124-8.89-13.797-20.741-15.928-33.781 0.682 6.206-1.174-1.73-2.134-10.882-1.28-9.152 0-19.648 3.392-30.976 3.584-11.52 7.616-20.288 12.416-26.432 4.8-6.208 9.216-10.944 13.44-14.336 4.8-3.584 9.6-5.76 14.4-7.168 3.392-10.752 6.848-21.248 10.24-31.36 3.392-8.768 7.040-17.28 11.2-25.856 5.217-11.4 13.503-20.636 23.806-26.876 2.434-2.628 12.674-11.716 21.89-20.484 9.216-8.704 14.4-21.248 15.808-37.568 0.64-10.304 1.024-19.84 1.024-28.608 0-8.96-1.6-17.28-4.608-25.472-5.758-13.812-15.18-25.135-27.060-33.065-9.121-10.912-33.807-25.474-61.392-33.015 12.1-0.974-19.777-12.384-54.053-15.48 7.21-0.936-95.702-36.136-117.974-43.688-33.102-10.841-61.169-29.415-83.095-53.651 8.983 10.515-1.257-8.557-5.481-33.581-6.784-43.392-8.192-50.304-4.608-78.144 3.648-27.648 9.216-44.16 16.832-49.728 6.208-4.544 23.872-10.112 53.312-16.64 29.44-6.592 214.592-41.216 429.568-41.216 28.032 0 55.104 0.64 81.152 1.792-0.481 3.653-0.756 7.877-0.756 12.166 0 5.831 0.508 11.544 1.481 17.096zM901.568 163.072c-20.040 4.122-36.399 17.102-45.058 34.576l-46.142 93.040c-3.584 7.36-8.576 11.136-13.44 11.136-4.8 0-9.6-3.776-13.44-11.136l-47.808-96.384c-7.424-14.72-26.88-28.8-43.328-31.232l-107.2-15.488c-16.384-2.432-20.224-13.76-8.192-25.28l77.568-74.944c10.419-11.346 16.805-26.541 16.805-43.228 0-2.584-0.153-5.131-0.451-7.635l-18.147-105.617c-2.048-11.712 2.56-18.688 10.816-18.688 3.2 0 6.784 1.024 10.816 3.2l95.744 50.112c7.538 3.64 16.393 5.766 25.744 5.766 0.309 0 0.618-0.002 0.926-0.007 9.553 0.001 19.409-1.983 26.641-5.759l95.744-50.112c4.032-2.176 7.808-3.2 10.88-3.2 8.192 0 12.8 6.976 10.752 18.688l-18.24 105.984c-0.26 2.165-0.408 4.672-0.408 7.213 0 16.713 6.406 31.929 16.897 43.328l77.527 74.899c12.16 11.52 8.576 22.848-7.808 25.28l-107.2 15.488z"  horiz-adv-x="1024" />

    
    <glyph glyph-name="jiantou11" unicode="&#59037;" d="M95.326 383.11c0 231.051 187.314 418.428 418.43 418.428s418.429-187.378 418.429-418.428c0-231.116-187.313-418.43-418.429-418.43-231.116 0-418.43 187.313-418.43 418.43zM879.882 383.11c0 202.218-163.907 366.126-366.126 366.126-202.22 0-366.192-163.874-366.191-366.126 0-202.252 163.972-366.158 366.191-366.158 202.22 0.001 366.126 163.94 366.126 366.158zM290.55 264.511c-10.266 10.2-10.266 26.741 0 36.939l200.193 200.225c6.341 6.276 14.906 8.238 23.013 6.799 8.107 1.439 16.737-0.555 23.014-6.799l200.258-200.225c10.199-10.232 10.199-26.772 0-36.939-10.199-10.264-26.805-10.264-37.004 0l-186.266 186.202-186.202-186.202c-10.264-10.265-26.805-10.264-37.004-0.001z"  horiz-adv-x="1024" />

    
    <glyph glyph-name="tubiaozhizuomoban" unicode="&#58882;" d="M106.307 840.783c-0.414-1.518-0.967-2.899-1.243-4.419 0.414 1.382 0.831 2.899 1.243 4.419zM161.957 878.479c-0.69 0-1.518 0.139-2.209 0.139 0.551-0.139 1.382-0.139 2.209-0.139zM107.691 844.649c-0.551-1.243-0.967-2.624-1.518-3.867h0.139c0.551 1.243 0.967 2.624 1.382 3.867zM159.331 878.619v0zM463.257 520.29c39.906 0 72.219 32.313 72.219 72.219s-32.313 72.219-72.219 72.219-72.219-32.313-72.219-72.219 32.313-72.219 72.219-72.219zM981.072 457.323c0 12.703-4.281 24.442-11.461 33.969-4.004 5.247-9.115 11.599-15.743 19.471-16.985 19.746-58.686 65.59-124.002 118.201l73.047 79.262c4.004 4.004 6.489 9.527 6.489 15.603 0 7.595-3.867 14.361-9.804 18.366h-0.139l-1.243 0.831c-119.443 69.042-306.961 59.238-356.118 55.233-107.292 43.36-234.19 75.257-380.145 80.089-0.69 0-1.518 0.139-2.209 0.139h-0.414c-23.060 0-42.944-13.946-51.505-33.829-0.414-1.382-0.967-2.624-1.382-4.004-0.551-1.518-0.967-2.899-1.382-4.419-86.718-263.051-63.933-494.341-28.583-644.023 31.069-131.181 75.808-222.178 95.28-257.941l0.139 0.139c8.56-15.327 24.028-26.237 42.115-28.447 0.274 0 0.69-0.139 0.967-0.139 0.551 0 1.105 0 1.657-0.139 27.202-2.487 54.129-3.728 80.227-3.728 272.439 0 440.212 132.561 532.867 243.854 97.626 117.094 140.431 241.233 150.236 300.057v0.139c0.139 0.69 0.274 1.243 0.274 1.934 0.551 3.175 0.831 6.213 0.831 9.39zM463.257 691.79c54.682 0 99.282-44.465 99.282-99.282 0-54.682-44.601-99.282-99.282-99.282-54.819 0-99.282 44.601-99.282 99.282 0 54.682 44.465 99.282 99.282 99.282zM113.351 220.094c-0.139 0.551-0.276 1.105-0.414 1.795 39.078 1.657 76.499 7.595 111.709 16.57l-43.497-93.345-67.799 74.979zM296.727-55.797c-7.458 0-14.913 0.139-22.508 0.414-16.432 0.414-33.279 1.518-50.124 3.040-8.011 1.105-14.775 5.802-18.366 12.703-2.209 4.281-4.832 9.251-7.595 14.775 3.314 0 6.766-0.139 10.219-0.139 108.811 0 194.009 32.587 253.799 97.349 114.471 123.862 96.66 322.703 91.55 363.437h-0.139c-1.105 10.356-9.804 18.503-20.575 18.503-5.523 0-10.494-2.209-14.222-5.662l-0.414-0.414c-0.139-0.139-0.276-0.276-0.414-0.551-28.998-28.722-195.665-184.205-411.905-190.556-22.508 122.346-31.898 286.663 12.429 471.973h0.139c2.762 14.085 15.189 24.717 29.965 24.717 3.59 0 7.043-0.69 10.219-1.795 0.551-0.276 0.967-0.414 1.518-0.69l0.831-0.414c43.911-17.675 110.881-48.192 187.655-94.863-10.494-18.78-16.432-40.459-16.432-63.381 0-72.219 58.686-130.903 130.903-130.903 36.592 0 69.595 15.052 93.345 39.355 97.763-88.651 179.787-189.729 244.271-301.023 1.518-3.175 2.624-6.627 2.624-10.356 0-6.213-2.348-11.873-6.213-16.295h0.139s0-0.139-0.139-0.139c-86.994-104.666-244.411-229.082-500.555-229.082zM271.18 110.732l92.518-68.49c-34.523-16.985-74.427-27.342-119.718-30.794l27.202 99.282zM257.509 247.71c40.598 12.841 77.879 29.412 111.294 47.226l-17.812-109.362-93.482 62.139zM393.663 308.883c36.179 21.127 67.109 43.22 91.55 62.692l2.071-99.973-93.62 37.281zM494.463 193.719c-12.982-35.074-31.621-68.903-58.133-97.763-2.762-2.899-5.523-5.799-8.425-8.56l-21.266 104.669 87.822 1.657z"  horiz-adv-x="1024" />

    
    <glyph glyph-name="hangyeyimatong" unicode="&#58938;" d="M937.325532 607.255517V810.301987h-201.666141L650.641318 895.93354H1022.466301v-374.319801L937.325532 607.255517zM283.652601 808.011663H87.436206v-197.601838L0 522.401038V896h371.104144L283.652601 808.011663zM72.181008 194.664803v-246.726231h234.359501l72.196346-75.93346H0v398.710734l72.181008-76.051043z m605.954429-246.721119h265.493599v256.168707L1022.466301 280.168547v-408.158322h-423.178353l78.847489 75.933459zM278.688527 615.41991h186.037744v-186.037743h-186.037744v186.037743zM557.745142 615.41991h186.037744v-186.037743h-186.037744v186.037743zM278.688527 336.363295h186.037744v-186.037743h-186.037744v186.037743zM557.745142 336.363295h186.037744v-186.037743h-186.037744v186.037743z"  horiz-adv-x="1024" />

    
    <glyph glyph-name="pinganyinhang" unicode="&#58884;" d="M622.552 213.976H401.586c-11.324 0-20.45-8.824-20.45-20.118v-211.36c0-10.842 9.126-20.057 20.45-20.057h220.966c11.384 0 20.72 9.215 20.72 20.057v211.36c0 11.294-9.336 20.118-20.72 20.118zM613.728 782.098c-8.132 14.035-21.413 23.34-37.194 23.34H447.995c-16.172 0-29.273-9.305-37.495-23.34L6.062 2.616c-13.492-25.147-2.108-40.175 21.895-40.175h128.147c18.642 0 25.69 4.758 35.026 22.075l320.924 626.82 321.045-626.82c9.516-17.317 16.473-22.075 35.025-22.075h128.237c23.883 0 35.508 15.028 22.016 40.175L613.728 782.098z"  horiz-adv-x="1025" />

    
    <glyph glyph-name="jiantou" unicode="&#58898;" d="M432.448 891.072l536.832-506.112-536.768-508.096-33.024 34.879 499.904 473.151-499.84 471.296z"  horiz-adv-x="1024" />

    
    <glyph glyph-name="jia" unicode="&#59018;" d="M60.509091 449.163636h902.981818c32.581818 0 60.509091-27.927273 60.509091-60.509091 0-32.581818-27.927273-60.509091-60.509091-60.50909H60.509091c-32.581818 0-60.509091 27.927273-60.509091 60.50909 0 34.909091 27.927273 60.509091 60.509091 60.509091zM572.509091 835.490909v-902.981818c0-32.581818-27.927273-60.509091-60.509091-60.509091-32.581818 0-60.509091 27.927273-60.509091 60.509091V835.490909C451.490909 868.072727 479.418182 896 512 896c32.581818 0 60.509091-27.927273 60.509091-60.509091z"  horiz-adv-x="1024" />

    
    <glyph glyph-name="chevron-circle-up" unicode="&#58928;" d="M926.476 384c0 229.361-186.018 414.476-414.476 414.476s-414.476-186.018-414.476-414.476 186.018-414.476 414.476-414.476 414.476 185.115 414.476 414.476zM489.425 237.714l-206.787 205.883c-6.321 6.321-9.030 14.448-9.030 22.575s2.709 16.254 9.030 22.575c12.642 12.642 32.508 12.642 45.15 0l184.212-184.212 181.503 183.309c12.642 12.642 32.508 12.642 44.246 0 12.642-12.642 12.642-32.508 0-44.246l-204.078-205.884c-6.321-6.321-13.545-9.030-22.575-9.030-7.224 0-15.351 2.709-21.672 9.030z"  horiz-adv-x="1024" />

    
    <glyph glyph-name="abc" unicode="&#58883;" d="M619.52 889.88672v-99.968c0.39936-0.10752 0.79872-0.22016 1.2032-0.32256v-265.6512l-4.43904-6.4256-4.2752-2.20672-6.4768-2.19136-8.59136-2.2016H538.59328l-4.28032-2.11456-2.16576-4.24448-2.1504-4.38784v-148.87424l2.1504 2.2016 2.16576 2.11968H661.6064l8.70912 2.11968h4.36224l4.22912 2.19648 2.15552 4.23936 2.20672 2.2016 2.16064 4.22912V766.56128c143.37536-64.91136 243.06688-208.59392 243.06688-375.44448 0-208.38912-155.49952-380.672-357.44256-408.42752V182.8864h90.56256l8.70912 2.11968 4.36224 2.19648h4.22912l2.15552 4.31616 2.20672 2.2016 2.16064 4.23936V351.29856l-4.36736-4.39296-6.38464-4.38784-6.51264-2.11456-6.5536-2.11968h-123.01312l-4.28032-2.1248-2.16576-4.31616-2.1504-4.31104v-142.50496h-32.41472v146.81088l-4.2752 4.31616-4.352 2.11968H365.952l-6.51776 2.1248-6.43584 2.11456-6.50752 4.38784-2.11968 2.11968-2.15552 2.27328v-146.83648l2.15552-6.50752v-4.23424l2.11968-2.2016 4.31616-4.32128h4.352l2.1248-2.19136 8.66816-2.11968h90.6752v-200.24832C254.55616 10.29632 98.9184 182.63552 98.9184 391.1168c0 166.84544 99.6864 310.53312 243.07712 375.4496v-41.98912l0.22016 0.10752v-347.5712l2.1504-6.51264v-4.22912l2.1248-2.20672 4.31616-4.22912 2.19136-2.2016h4.28032l8.66816-2.11968H493.312l4.2752-4.32128V504.55552l-4.2752 4.24448-4.352 2.11456H430.68928l-6.46656 2.2016-6.44096 2.19136-6.51264 2.20672-2.1504 2.11968-2.1248 4.31104V889.69728C175.0784 840.87808 1.04448 636.2112 1.04448 391.1168c0-281.46176 229.5296-509.64992 512.6656-509.64992 283.14112 0 512.66048 228.18304 512.66048 509.64992 0 245.41184-174.4896 450.29376-406.85056 498.76992z"  horiz-adv-x="1026" />

    
    <glyph glyph-name="yanzhengma" unicode="&#58931;" d="M512 808.96C419.84 737.28 317.44 691.2 148.48 691.2v-317.44c0-148.48 189.44-414.72 363.52-414.72s363.52 266.24 363.52 414.72V691.2c-174.08 0-271.36 46.08-363.52 117.76z m266.24-332.8L537.6 230.4c-10.24-10.24-25.6-15.36-35.84-15.36-10.24 0-25.6 5.12-35.84 10.24l-168.96 148.48c-20.48 20.48-25.6 51.2-5.12 71.68 20.48 20.48 51.2 25.6 71.68 5.12L496.64 332.8l209.92 209.92c20.48 20.48 51.2 20.48 71.68 0s20.48-46.08 0-66.56z"  horiz-adv-x="1024" />

    
    <glyph glyph-name="qianbao1" unicode="&#58903;" d="M852.992 6.144H171.008c-43.52 0-78.848 34.816-78.848 78.336v404.48c0 42.496 41.472 82.944 83.968 83.968h20.992l-1.024 110.592c0 42.496 35.84 78.336 78.848 78.336l592.896-117.248C926.208 628.224 931.84 583.68 931.84 564.736v-480.256c0-43.52-35.328-78.336-78.848-78.336zM271.872 719.872c-17.92-1.536-33.28-17.92-33.28-36.352l1.024-110.592h566.784c18.944 0 42.496 16.384 51.712 31.232L271.872 719.872z m617.984-146.944s-9.728-41.984-83.968-41.984h-629.76c-18.944 0-41.984-22.528-41.984-41.984v-404.48c0-19.968 16.384-36.352 36.864-36.352h682.496c20.48 0 36.864 16.384 36.864 36.352V572.928zM260.096 363.008c34.816 0 62.976-28.16 62.976-62.976s-28.16-62.976-62.976-62.976-62.976 28.16-62.976 62.976 28.16 62.976 62.976 62.976z"  horiz-adv-x="1024" />

    
    <glyph glyph-name="jiantou1" unicode="&#59090;" d="M678.898 824.874c8.449 0 16.903-3.224 23.35-9.67 12.897-12.9 12.897-33.805 0-46.704l-384.502-384.501 384.502-384.502c12.897-12.896 12.897-33.805 0-46.7-12.893-12.895-33.803-12.895-46.703 0l-407.853 407.853c-12.895 12.895-12.895 33.805 0 46.7l407.853 407.854c6.45 6.446 14.903 9.67 23.353 9.67z"  horiz-adv-x="1024" />

    
    <glyph glyph-name="gengduojiantou" unicode="&#58907;" d="M516.718592 6.426624a23.606272 23.606272 0 0 0-12.63104 3.664896 23.507968 23.507968 0 0 0-10.445824 14.803968 23.52128 23.52128 0 0 0 3.083264 17.854464l0.3072 0.490496 317.565952 339.36384-317.563904 339.365888-0.311296 0.49152c-6.971392 11.034624-3.666944 25.684992 7.366656 32.658432A23.619584 23.619584 0 0 0 516.721664 758.784c7.94624 0 15.296512-3.928064 19.69664-10.517504l327.04-352.534528 0.303104-0.479232c4.856832-7.683072 4.856832-17.6128 0-25.296896l-0.303104-0.480256L536.41728 16.9472a23.616512 23.616512 0 0 0-19.698688-10.520576z"  horiz-adv-x="1433" />

    
    <glyph glyph-name="zhaobudaoliao" unicode="&#58895;" d="M21.3218 387.204577c10.101859 31.539392 71.93826 107.427573 155.649169 121.205172-37.434285-49.858115-46.310897-98.396734-50.826317-149.154505-2.167744-24.453525-11.515605-50.303659-41.684091-58.640478-31.110984-8.593863-57.355254 15.945343-63.138761 31.753596-5.783507 15.799684-10.101859 23.288255 0 54.836215zM394.602198 735.774406c-57.098209 52.899811-71.698351 60.876767-110.769155 84.276408-35.566426 21.291874-22.654211 63.618578 1.542269 71.484147 86.007176 27.949333 126.037613-82.1258 109.226886-155.760555zM753.291022 845.738153c-8.311114-23.399641-28.017879-26.389929-52.128677-30.485508-26.741223-4.541124-64.800984-17.230567-67.388568-20.160877s24.830524 84.567726 78.475765 96.588852c36.217606 8.131183 50.509295-19.372607 41.04148-45.942467zM859.690416 680.038534c70.336014 13.709054 108.010207-17.941724 137.904513-67.42284 16.245229-26.912586 14.617279-52.805562-9.939064-66.805933-27.957902-15.928207-54.819079-2.364812-65.066597 28.694763-12.638034 38.351078-26.818336 74.971388-62.898852 105.53401zM177.844921 717.969772c8.533886-1.610814 19.723901-2.04779 29.534443-5.95487 14.514461-5.774939 39.764824-22.996938 39.764824-22.996938s-17.993133-1.687927-37.605648-11.652696-37.768443-27.846515-59.574407-45.685421-51.55461-25.653067-69.993288-4.275511c-22.89412 26.561292-2.176312 58.374865 24.796251 75.416932s43.389155 16.339478 73.077825 15.148504zM672.193401 713.994147c-132.737913 50.02091-276.537319 12.355285-371.369699-97.265737-87.506604-101.138544-105.491169-257.601689-40.030437-373.17758 20.452195-36.097652 78.150175-61.476538 75.305546-92.887408-3.135946-34.692474-17.59043-53.850877-66.44607-94.172631 130.304556-25.473136 224.939868-29.962851 343.934455 1.76504 170.086517 45.342695 275.826162 180.616784 274.660892 349.615145-0.942497 137.424696-85.227474 256.821986-216.054687 306.123171z m-260.90043-395.771815c-7.068731-6.768845-22.011599-18.250178-34.24693-7.58282-12.235331 10.658789-8.850908 23.151165 4.686783 34.135544l62.77033 50.877725s-67.208636 11.267129-79.006991 14.831483c-11.789786 3.564354-27.03254 10.821584-19.072721 30.545485 7.959819 19.732469 14.540165 15.688298 28.463423 12.740852 39.807665-11.695537 79.880943-22.405735 137.004856-38.265396-40.518822-39.233598-70.413127-68.39961-100.59875-97.282873z m353.128089 94.22404c-2.493334-13.863281-14.034644-16.536546-24.98475-14.454483-41.529865 7.934115-142.394228 25.987225-142.394229 25.987225s72.092487 75.19416 97.505646 109.852361c7.814161 10.658789 19.381175 6.546073 28.497695-1.525132 9.81911-8.688113 11.44706-18.558632 1.670791-27.846515-17.907452-17.024931-56.078598-58.974636-56.078598-58.974636s52.985493-3.333014 75.416932-6.391846c13.786167-1.867859 23.194005-10.967243 20.366513-26.646974zM278.717853-67.241988a250.670048 60.251291 0 1 1 501.340096 0 250.670048 60.251291 0 1 1-501.340096 0Z"  horiz-adv-x="1024" />

    
    </font>
</defs>
</svg>
